Helius-Black.ufo
<glyph name="exclam" format="2">
  <advance width="235"/>
  <unicode hex="0021"/>
  <outline>
    <contour>
      <point x="38" y="0" type="line"/>
      <point x="198" y="0" type="line"/>
      <point x="198" y="160" type="line"/>
      <point x="38" y="160" type="line"/>
    </contour>
    <contour>
      <point x="38" y="633" type="line"/>
      <point x="38" y="444" type="line"/>
      <point x="67" y="228" type="line"/>
      <point x="169" y="228" type="line"/>
      <point x="198" y="444" type="line"/>
      <point x="198" y="633" type="line"/>
    </contour>
  </outline>
</glyph>
<glyph name="numbersign" format="2">
  <advance width="634"/>
  <unicode hex="0023"/>
  <outline>
    <contour>
      <point x="607" y="327" type="line"/>
      <point x="607" y="477" type="line"/>
      <point x="524" y="477" type="line"/>
      <point x="542" y="603" type="line"/>
      <point x="391" y="603" type="line"/>
      <point x="373" y="477" type="line"/>
      <point x="312" y="477" type="line"/>
      <point x="330" y="603" type="line"/>
      <point x="178" y="603" type="line"/>
      <point x="161" y="477" type="line"/>
      <point x="62" y="477" type="line"/>
      <point x="62" y="327" type="line"/>
      <point x="140" y="327" type="line"/>
      <point x="132" y="271" type="line"/>
      <point x="28" y="271" type="line"/>
      <point x="28" y="121" type="line"/>
      <point x="111" y="121" type="line"/>
      <point x="94" y="0" type="line"/>
      <point x="246" y="0" type="line"/>
      <point x="263" y="121" type="line"/>
      <point x="323" y="121" type="line"/>
      <point x="306" y="0" type="line"/>
      <point x="458" y="0" type="line"/>
      <point x="475" y="121" type="line"/>
      <point x="573" y="121" type="line"/>
      <point x="573" y="271" type="line"/>
      <point x="496" y="271" type="line"/>
      <point x="503" y="327" type="line"/>
    </contour>
    <contour>
      <point x="344" y="271" type="line"/>
      <point x="284" y="271" type="line"/>
      <point x="291" y="327" type="line"/>
      <point x="352" y="327" type="line"/>
    </contour>
  </outline>
</glyph>
<glyph name="dollar" format="2">
  <advance width="537"/>
  <unicode hex="0024"/>
  <outline>
    <contour>
      <point x="329" y="334" type="curve"/>
      <point x="329" y="379" type="line"/>
      <point x="331" y="378" type="line" smooth="yes"/>
      <point x="339" y="373"/>
      <point x="346" y="364"/>
      <point x="346" y="343" type="curve"/>
      <point x="496" y="343" type="line"/>
      <point x="496" y="445"/>
      <point x="430" y="517"/>
      <point x="329" y="538" type="curve"/>
      <point x="329" y="603" type="line"/>
      <point x="209" y="603" type="line"/>
      <point x="209" y="540" type="line"/>
      <point x="122" y="525"/>
      <point x="46" y="470"/>
      <point x="46" y="375" type="curve" smooth="yes"/>
      <point x="46" y="279"/>
      <point x="124" y="233"/>
      <point x="209" y="210" type="curve"/>
      <point x="209" y="139" type="line"/>
      <point x="193" y="146"/>
      <point x="178" y="159"/>
      <point x="178" y="178" type="curve" smooth="yes"/>
      <point x="178" y="183" type="line"/>
      <point x="29" y="198" type="line"/>
      <point x="28" y="191"/>
      <point x="28" y="186"/>
      <point x="28" y="185" type="curve" smooth="yes"/>
      <point x="28" y="72"/>
      <point x="111" y="2"/>
      <point x="209" y="-19" type="curve"/>
      <point x="209" y="-85" type="line"/>
      <point x="329" y="-85" type="line"/>
      <point x="329" y="-22" type="line"/>
      <point x="427" y="-8"/>
      <point x="510" y="56"/>
      <point x="510" y="162" type="curve" smooth="yes"/>
      <point x="510" y="271"/>
      <point x="421" y="313"/>
    </contour>
    <contour>
      <point x="192" y="378" type="curve" smooth="yes"/>
      <point x="192" y="382"/>
      <point x="198" y="386"/>
      <point x="209" y="389" type="curve"/>
      <point x="209" y="365" type="line"/>
      <point x="198" y="369"/>
      <point x="192" y="373"/>
    </contour>
    <contour>
      <point x="329" y="127" type="curve"/>
      <point x="329" y="180" type="line"/>
      <point x="335" y="178" type="line" smooth="yes"/>
      <point x="353" y="171"/>
      <point x="360" y="163"/>
      <point x="360" y="153" type="curve" smooth="yes"/>
      <point x="360" y="138"/>
      <point x="346" y="131"/>
    </contour>
  </outline>
</glyph>
<glyph name="percent" format="2">
  <advance width="774"/>
  <unicode hex="0025"/>
  <outline>
    <contour>
      <point x="476" y="538" type="line"/>
      <point x="121" y="-20" type="line"/>
      <point x="299" y="-20" type="line"/>
      <point x="654" y="538" type="line"/>
    </contour>
    <contour>
      <point x="179" y="559" type="curve" smooth="yes"/>
      <point x="89" y="559"/>
      <point x="23" y="488"/>
      <point x="23" y="389" type="curve" smooth="yes"/>
      <point x="23" y="290"/>
      <point x="89" y="219"/>
      <point x="179" y="219" type="curve" smooth="yes"/>
      <point x="269" y="219"/>
      <point x="335" y="290"/>
      <point x="335" y="389" type="curve" smooth="yes"/>
      <point x="335" y="488"/>
      <point x="269" y="559"/>
    </contour>
    <contour>
      <point x="179" y="366" type="curve" smooth="yes"/>
      <point x="167" y="366"/>
      <point x="158" y="376"/>
      <point x="158" y="389" type="curve" smooth="yes"/>
      <point x="158" y="402"/>
      <point x="167" y="412"/>
      <point x="179" y="412" type="curve" smooth="yes"/>
      <point x="191" y="412"/>
      <point x="200" y="402"/>
      <point x="200" y="389" type="curve" smooth="yes"/>
      <point x="200" y="376"/>
      <point x="191" y="366"/>
    </contour>
    <contour>
      <point x="596" y="299" type="curve" smooth="yes"/>
      <point x="506" y="299"/>
      <point x="440" y="228"/>
      <point x="440" y="129" type="curve" smooth="yes"/>
      <point x="440" y="30"/>
      <point x="506" y="-41"/>
      <point x="596" y="-41" type="curve" smooth="yes"/>
      <point x="686" y="-41"/>
      <point x="752" y="30"/>
      <point x="752" y="129" type="curve" smooth="yes"/>
      <point x="752" y="228"/>
      <point x="686" y="299"/>
    </contour>
    <contour>
      <point x="596" y="106" type="curve" smooth="yes"/>
      <point x="584" y="106"/>
      <point x="575" y="116"/>
      <point x="575" y="129" type="curve" smooth="yes"/>
      <point x="575" y="142"/>
      <point x="584" y="152"/>
      <point x="596" y="152" type="curve" smooth="yes"/>
      <point x="608" y="152"/>
      <point x="617" y="142"/>
      <point x="617" y="129" type="curve" smooth="yes"/>
      <point x="617" y="116"/>
      <point x="608" y="106"/>
    </contour>
  </outline>
</glyph>
<glyph name="ampersand" format="2">
  <advance width="606"/>
  <unicode hex="0026"/>
  <outline>
    <contour>
      <point x="415" y="0" type="line"/>
      <point x="579" y="0" type="line"/>
      <point x="456" y="133" type="line"/>
      <point x="492" y="185"/>
      <point x="523" y="267"/>
      <point x="523" y="279" type="curve"/>
      <point x="396" y="279" type="line"/>
      <point x="395" y="276"/>
      <point x="388" y="254"/>
      <point x="371" y="224" type="curve"/>
      <point x="209" y="399" type="line" smooth="yes"/>
      <point x="192" y="417"/>
      <point x="182" y="435"/>
      <point x="182" y="448" type="curve" smooth="yes"/>
      <point x="182" y="463"/>
      <point x="193" y="483"/>
      <point x="217" y="483" type="curve" smooth="yes"/>
      <point x="241" y="483"/>
      <point x="251" y="463"/>
      <point x="251" y="444" type="curve"/>
      <point x="371" y="444" type="line"/>
      <point x="371" y="531"/>
      <point x="306" y="603"/>
      <point x="217" y="603" type="curve" smooth="yes"/>
      <point x="130" y="603"/>
      <point x="62" y="532"/>
      <point x="62" y="446" type="curve" smooth="yes"/>
      <point x="62" y="404"/>
      <point x="80" y="370"/>
      <point x="98" y="344" type="curve"/>
      <point x="57" y="305"/>
      <point x="28" y="252"/>
      <point x="28" y="192" type="curve" smooth="yes"/>
      <point x="28" y="80"/>
      <point x="128" y="0"/>
      <point x="238" y="0" type="curve" smooth="yes"/>
      <point x="288" y="0"/>
      <point x="333" y="16"/>
      <point x="373" y="45" type="curve"/>
    </contour>
    <contour>
      <point x="239" y="120" type="curve" smooth="yes"/>
      <point x="195" y="120"/>
      <point x="148" y="147"/>
      <point x="148" y="193" type="curve" smooth="yes"/>
      <point x="148" y="214"/>
      <point x="159" y="236"/>
      <point x="179" y="255" type="curve"/>
      <point x="291" y="134" type="line"/>
      <point x="274" y="125"/>
      <point x="257" y="120"/>
    </contour>
  </outline>
</glyph>
<glyph name="quotesingle" format="2">
  <advance width="249"/>
  <unicode hex="0027"/>
  <outline>
    <contour>
      <point x="64" y="432" type="line"/>
      <point x="36" y="493"/>
      <point x="13" y="568"/>
      <point x="13" y="635" type="curve"/>
      <point x="163" y="635" type="line"/>
      <point x="163" y="582"/>
      <point x="195" y="481"/>
      <point x="237" y="432" type="curve"/>
    </contour>
  </outline>
</glyph>
<glyph name="parenleft" format="2">
  <advance width="335"/>
  <unicode hex="0028"/>
  <outline>
    <contour>
      <point x="305" y="-49" type="curve" smooth="yes"/>
      <point x="323" y="-76" type="line"/>
      <point x="151" y="-76" type="line"/>
      <point x="144" y="-66" type="line" smooth="yes"/>
      <point x="66" y="51"/>
      <point x="23" y="178"/>
      <point x="23" y="309" type="curve" smooth="yes"/>
      <point x="23" y="440"/>
      <point x="66" y="567"/>
      <point x="144" y="683" type="curve" smooth="yes"/>
      <point x="151" y="693" type="line"/>
      <point x="322" y="693" type="line"/>
      <point x="304" y="666" type="line" smooth="yes"/>
      <point x="223" y="550"/>
      <point x="177" y="440"/>
      <point x="177" y="309" type="curve" smooth="yes"/>
      <point x="177" y="178"/>
      <point x="223" y="67"/>
    </contour>
  </outline>
</glyph>
<glyph name="parenright" format="2">
  <advance width="335"/>
  <unicode hex="0029"/>
  <outline>
    <contour>
      <point x="185" y="692" type="line"/>
      <point x="192" y="682" type="line" smooth="yes"/>
      <point x="271" y="566"/>
      <point x="313" y="439"/>
      <point x="313" y="308" type="curve" smooth="yes"/>
      <point x="313" y="177"/>
      <point x="270" y="50"/>
      <point x="192" y="-67" type="curve" smooth="yes"/>
      <point x="185" y="-77" type="line"/>
      <point x="13" y="-77" type="line"/>
      <point x="32" y="-50" type="line" smooth="yes"/>
      <point x="113" y="66"/>
      <point x="160" y="178"/>
      <point x="160" y="308" type="curve" smooth="yes"/>
      <point x="160" y="439"/>
      <point x="114" y="550"/>
      <point x="33" y="665" type="curve" smooth="yes"/>
      <point x="14" y="692" type="line"/>
    </contour>
  </outline>
</glyph>
<glyph name="asterisk" format="2">
  <advance width="457"/>
  <unicode hex="002A"/>
  <outline>
    <contour>
      <point x="430" y="333" type="line"/>
      <point x="384" y="476" type="line"/>
      <point x="304" y="450" type="line"/>
      <point x="304" y="534" type="line"/>
      <point x="154" y="534" type="line"/>
      <point x="154" y="450" type="line"/>
      <point x="74" y="476" type="line"/>
      <point x="28" y="333" type="line"/>
      <point x="108" y="307" type="line"/>
      <point x="58" y="240" type="line"/>
      <point x="180" y="151" type="line"/>
      <point x="229" y="219" type="line"/>
      <point x="278" y="151" type="line"/>
      <point x="400" y="240" type="line"/>
      <point x="351" y="307" type="line"/>
    </contour>
  </outline>
</glyph>
<glyph name="plus" format="2">
  <advance width="425"/>
  <unicode hex="002B"/>
  <outline>
    <contour>
      <point x="413" y="338" type="line"/>
      <point x="293" y="338" type="line"/>
      <point x="293" y="458" type="line"/>
      <point x="133" y="458" type="line"/>
      <point x="133" y="338" type="line"/>
      <point x="13" y="338" type="line"/>
      <point x="13" y="178" type="line"/>
      <point x="133" y="178" type="line"/>
      <point x="133" y="58" type="line"/>
      <point x="293" y="58" type="line"/>
      <point x="293" y="178" type="line"/>
      <point x="413" y="178" type="line"/>
    </contour>
  </outline>
</glyph>
<glyph name="comma" format="2">
  <advance width="249"/>
  <unicode hex="002C"/>
  <outline>
    <contour>
      <point x="186" y="-90" type="line"/>
      <point x="214" y="-29"/>
      <point x="237" y="46"/>
      <point x="237" y="113" type="curve"/>
      <point x="87" y="113" type="line"/>
      <point x="87" y="60"/>
      <point x="55" y="-41"/>
      <point x="13" y="-90" type="curve"/>
    </contour>
  </outline>
</glyph>
<glyph name="hyphen" format="2">
  <advance width="297"/>
  <unicode hex="002D"/>
  <outline>
    <contour>
      <point x="285" y="282" type="line"/>
      <point x="13" y="282" type="line"/>
      <point x="13" y="432" type="line"/>
      <point x="285" y="432" type="line"/>
    </contour>
  </outline>
</glyph>
<glyph name="period" format="2">
  <advance width="185"/>
  <unicode hex="002E"/>
  <outline>
    <contour>
      <point x="173" y="0" type="line"/>
      <point x="13" y="0" type="line"/>
      <point x="13" y="160" type="line"/>
      <point x="173" y="160" type="line"/>
    </contour>
  </outline>
</glyph>
<glyph name="slash" format="2">
  <advance width="595"/>
  <unicode hex="002F"/>
  <outline>
    <contour>
      <point x="407" y="684" type="line"/>
      <point x="13" y="-164" type="line"/>
      <point x="189" y="-164" type="line"/>
      <point x="583" y="684" type="line"/>
    </contour>
  </outline>
</glyph>
<glyph name="zero" format="2">
  <advance width="498"/>
  <unicode hex="0030"/>
  <outline>
    <contour>
      <point x="249" y="0" type="curve" smooth="yes"/>
      <point x="89" y="0"/>
      <point x="23" y="159"/>
      <point x="23" y="301" type="curve" smooth="yes"/>
      <point x="23" y="442"/>
      <point x="87" y="603"/>
      <point x="248" y="603" type="curve" smooth="yes"/>
      <point x="409" y="603"/>
      <point x="476" y="442"/>
      <point x="476" y="302" type="curve" smooth="yes"/>
      <point x="476" y="163"/>
      <point x="412" y="0"/>
    </contour>
    <contour>
      <point x="249" y="443" type="curve" smooth="yes"/>
      <point x="201" y="443"/>
      <point x="183" y="358"/>
      <point x="183" y="301" type="curve" smooth="yes"/>
      <point x="183" y="245"/>
      <point x="201" y="160"/>
      <point x="249" y="160" type="curve" smooth="yes"/>
      <point x="298" y="160"/>
      <point x="316" y="245"/>
      <point x="316" y="302" type="curve" smooth="yes"/>
      <point x="316" y="358"/>
      <point x="298" y="443"/>
    </contour>
  </outline>
</glyph>
<glyph name="one" format="2">
  <advance width="364"/>
  <unicode hex="0031"/>
  <outline>
    <contour>
      <point x="154" y="603" type="line"/>
      <point x="13" y="507" type="line"/>
      <point x="103" y="375" type="line"/>
      <point x="162" y="415" type="line"/>
      <point x="162" y="0" type="line"/>
      <point x="322" y="0" type="line"/>
      <point x="322" y="603" type="line"/>
    </contour>
  </outline>
</glyph>
<glyph name="two" format="2">
  <advance width="464"/>
  <unicode hex="0032"/>
  <outline>
    <contour>
      <point x="442" y="394" type="curve" smooth="yes"/>
      <point x="442" y="513"/>
      <point x="349" y="603"/>
      <point x="232" y="603" type="curve" smooth="yes"/>
      <point x="111" y="603"/>
      <point x="23" y="506"/>
      <point x="23" y="385" type="curve"/>
      <point x="183" y="385" type="line"/>
      <point x="183" y="437"/>
      <point x="220" y="443"/>
      <point x="234" y="443" type="curve" smooth="yes"/>
      <point x="258" y="443"/>
      <point x="283" y="425"/>
      <point x="283" y="400" type="curve" smooth="yes"/>
      <point x="283" y="388"/>
      <point x="277" y="377"/>
      <point x="267" y="365" type="curve" smooth="yes"/>
      <point x="192" y="281"/>
      <point x="49" y="159"/>
      <point x="27" y="140" type="curve" smooth="yes"/>
      <point x="23" y="136" type="line"/>
      <point x="23" y="0" type="line"/>
      <point x="427" y="0" type="line"/>
      <point x="427" y="160" type="line"/>
      <point x="276" y="160" type="line"/>
      <point x="293" y="178"/>
      <point x="312" y="193"/>
      <point x="330" y="209" type="curve" smooth="yes"/>
      <point x="388" y="257"/>
      <point x="442" y="303"/>
    </contour>
  </outline>
</glyph>
<glyph name="three" format="2">
  <advance width="482"/>
  <unicode hex="0033"/>
  <outline>
    <contour>
      <point x="400" y="322" type="curve"/>
      <point x="428" y="344"/>
      <point x="441" y="385"/>
      <point x="441" y="423" type="curve" smooth="yes"/>
      <point x="441" y="534"/>
      <point x="335" y="603"/>
      <point x="229" y="603" type="curve" smooth="yes"/>
      <point x="146" y="603"/>
      <point x="65" y="561"/>
      <point x="28" y="482" type="curve"/>
      <point x="163" y="419" type="line"/>
      <point x="166" y="424"/>
      <point x="186" y="463"/>
      <point x="230" y="463" type="curve" smooth="yes"/>
      <point x="258" y="463"/>
      <point x="282" y="446"/>
      <point x="282" y="417" type="curve" smooth="yes"/>
      <point x="282" y="377"/>
      <point x="236" y="358"/>
      <point x="200" y="358" type="curve" smooth="yes"/>
      <point x="170" y="358" type="line"/>
      <point x="170" y="255" type="line"/>
      <point x="200" y="255" type="line"/>
      <point x="239" y="255"/>
      <point x="289" y="246"/>
      <point x="289" y="200" type="curve" smooth="yes"/>
      <point x="289" y="166"/>
      <point x="262" y="145"/>
      <point x="230" y="145" type="curve" smooth="yes"/>
      <point x="192" y="145"/>
      <point x="169" y="174"/>
      <point x="162" y="186" type="curve"/>
      <point x="28" y="122" type="line"/>
      <point x="66" y="43"/>
      <point x="150" y="0"/>
      <point x="236" y="0" type="curve" smooth="yes"/>
      <point x="347" y="0"/>
      <point x="455" y="76"/>
      <point x="455" y="192" type="curve" smooth="yes"/>
      <point x="455" y="223"/>
      <point x="448" y="282"/>
    </contour>
  </outline>
</glyph>
<glyph name="four" format="2">
  <advance width="513"/>
  <unicode hex="0034"/>
  <outline>
    <contour>
      <point x="441" y="603" type="line"/>
      <point x="281" y="603" type="line"/>
      <point x="23" y="218" type="line"/>
      <point x="23" y="68" type="line"/>
      <point x="281" y="68" type="line"/>
      <point x="281" y="0" type="line"/>
      <point x="441" y="0" type="line"/>
      <point x="441" y="68" type="line"/>
      <point x="501" y="68" type="line"/>
      <point x="501" y="228" type="line"/>
      <point x="441" y="228" type="line"/>
    </contour>
    <contour>
      <point x="281" y="228" type="line"/>
      <point x="191" y="228" type="line"/>
      <point x="281" y="363" type="line"/>
    </contour>
  </outline>
</glyph>
<glyph name="five" format="2">
  <advance width="484"/>
  <unicode hex="0035"/>
  <outline>
    <contour>
      <point x="270" y="418" type="curve" smooth="yes"/>
      <point x="257" y="418"/>
      <point x="240" y="417"/>
      <point x="224" y="413" type="curve"/>
      <point x="227" y="443" type="line"/>
      <point x="419" y="443" type="line"/>
      <point x="419" y="603" type="line"/>
      <point x="85" y="603" type="line"/>
      <point x="46" y="279" type="line"/>
      <point x="199" y="249" type="line"/>
      <point x="210" y="263"/>
      <point x="228" y="273"/>
      <point x="247" y="273" type="curve" smooth="yes"/>
      <point x="281" y="273"/>
      <point x="309" y="245"/>
      <point x="309" y="211" type="curve" smooth="yes"/>
      <point x="309" y="177"/>
      <point x="281" y="150"/>
      <point x="247" y="150" type="curve" smooth="yes"/>
      <point x="213" y="150"/>
      <point x="186" y="177"/>
      <point x="186" y="211" type="curve"/>
      <point x="38" y="211" type="line"/>
      <point x="38" y="90"/>
      <point x="125" y="0"/>
      <point x="247" y="0" type="curve" smooth="yes"/>
      <point x="369" y="0"/>
      <point x="457" y="87"/>
      <point x="457" y="206" type="curve" smooth="yes"/>
      <point x="457" y="314"/>
      <point x="384" y="418"/>
    </contour>
  </outline>
</glyph>
<glyph name="six" format="2">
  <advance width="515"/>
  <unicode hex="0036"/>
  <outline>
    <contour>
      <point x="325" y="460" type="curve"/>
      <point x="425" y="603" type="line"/>
      <point x="230" y="603" type="line"/>
      <point x="72" y="378" type="line" smooth="yes"/>
      <point x="42" y="336"/>
      <point x="23" y="287"/>
      <point x="23" y="233" type="curve" smooth="yes"/>
      <point x="23" y="105"/>
      <point x="128" y="0"/>
      <point x="258" y="0" type="curve" smooth="yes"/>
      <point x="388" y="0"/>
      <point x="493" y="105"/>
      <point x="493" y="235" type="curve" smooth="yes"/>
      <point x="493" y="339"/>
      <point x="424" y="431"/>
    </contour>
    <contour>
      <point x="258" y="160" type="curve" smooth="yes"/>
      <point x="217" y="160"/>
      <point x="183" y="194"/>
      <point x="183" y="235" type="curve" smooth="yes"/>
      <point x="183" y="251"/>
      <point x="187" y="266"/>
      <point x="196" y="277" type="curve" smooth="yes"/>
      <point x="199" y="282" type="line" smooth="yes"/>
      <point x="213" y="299"/>
      <point x="234" y="310"/>
      <point x="258" y="310" type="curve" smooth="yes"/>
      <point x="299" y="310"/>
      <point x="333" y="276"/>
      <point x="333" y="235" type="curve" smooth="yes"/>
      <point x="333" y="194"/>
      <point x="299" y="160"/>
    </contour>
  </outline>
</glyph>
<glyph name="seven" format="2">
  <advance width="448"/>
  <unicode hex="0037"/>
  <outline>
    <contour>
      <point x="13" y="603" type="line"/>
      <point x="13" y="443" type="line"/>
      <point x="253" y="443" type="line"/>
      <point x="44" y="0" type="line"/>
      <point x="221" y="0" type="line"/>
      <point x="436" y="456" type="line"/>
      <point x="436" y="603" type="line"/>
    </contour>
  </outline>
  <guideline angle="0" x="0" y="603"/>
</glyph>
<glyph name="eight" format="2">
  <advance width="485"/>
  <unicode hex="0038"/>
  <outline>
    <contour>
      <point x="418" y="323" type="curve"/>
      <point x="435" y="351"/>
      <point x="445" y="385"/>
      <point x="445" y="420" type="curve" smooth="yes"/>
      <point x="445" y="533"/>
      <point x="350" y="603"/>
      <point x="243" y="603" type="curve" smooth="yes"/>
      <point x="136" y="603"/>
      <point x="41" y="533"/>
      <point x="41" y="420" type="curve" smooth="yes"/>
      <point x="41" y="385"/>
      <point x="51" y="351"/>
      <point x="68" y="323" type="curve"/>
      <point x="41" y="288"/>
      <point x="28" y="244"/>
      <point x="28" y="200" type="curve" smooth="yes"/>
      <point x="28" y="79"/>
      <point x="127" y="0"/>
      <point x="243" y="0" type="curve" smooth="yes"/>
      <point x="359" y="0"/>
      <point x="458" y="79"/>
      <point x="458" y="200" type="curve" smooth="yes"/>
      <point x="458" y="244"/>
      <point x="445" y="288"/>
    </contour>
    <contour>
      <point x="243" y="463" type="curve" smooth="yes"/>
      <point x="268" y="463"/>
      <point x="291" y="447"/>
      <point x="291" y="420" type="curve" smooth="yes"/>
      <point x="291" y="393"/>
      <point x="269" y="378"/>
      <point x="243" y="378" type="curve" smooth="yes"/>
      <point x="217" y="378"/>
      <point x="195" y="393"/>
      <point x="195" y="420" type="curve" smooth="yes"/>
      <point x="195" y="447"/>
      <point x="218" y="463"/>
    </contour>
    <contour>
      <point x="243" y="143" type="curve" smooth="yes"/>
      <point x="210" y="143"/>
      <point x="182" y="165"/>
      <point x="182" y="201" type="curve" smooth="yes"/>
      <point x="182" y="235"/>
      <point x="208" y="256"/>
      <point x="243" y="256" type="curve" smooth="yes"/>
      <point x="278" y="256"/>
      <point x="304" y="235"/>
      <point x="304" y="201" type="curve" smooth="yes"/>
      <point x="304" y="165"/>
      <point x="276" y="143"/>
    </contour>
  </outline>
</glyph>
<glyph name="nine" format="2">
  <advance width="515"/>
  <unicode hex="0039"/>
  <outline>
    <contour>
      <point x="191" y="143" type="curve"/>
      <point x="91" y="0" type="line"/>
      <point x="286" y="0" type="line"/>
      <point x="444" y="225" type="line" smooth="yes"/>
      <point x="474" y="267"/>
      <point x="493" y="316"/>
      <point x="493" y="370" type="curve" smooth="yes"/>
      <point x="493" y="498"/>
      <point x="388" y="603"/>
      <point x="258" y="603" type="curve" smooth="yes"/>
      <point x="128" y="603"/>
      <point x="23" y="498"/>
      <point x="23" y="368" type="curve" smooth="yes"/>
      <point x="23" y="264"/>
      <point x="92" y="172"/>
    </contour>
    <contour>
      <point x="258" y="443" type="curve" smooth="yes"/>
      <point x="299" y="443"/>
      <point x="333" y="409"/>
      <point x="333" y="368" type="curve" smooth="yes"/>
      <point x="333" y="352"/>
      <point x="329" y="337"/>
      <point x="320" y="326" type="curve" smooth="yes"/>
      <point x="317" y="321" type="line" smooth="yes"/>
      <point x="303" y="304"/>
      <point x="282" y="293"/>
      <point x="258" y="293" type="curve" smooth="yes"/>
      <point x="217" y="293"/>
      <point x="183" y="327"/>
      <point x="183" y="368" type="curve" smooth="yes"/>
      <point x="183" y="409"/>
      <point x="217" y="443"/>
    </contour>
  </outline>
</glyph>
<glyph name="colon" format="2">
  <advance width="205"/>
  <unicode hex="003A"/>
  <outline>
    <contour>
      <point x="183" y="60" type="line"/>
      <point x="23" y="60" type="line"/>
      <point x="23" y="220" type="line"/>
      <point x="183" y="220" type="line"/>
    </contour>
    <contour>
      <point x="183" y="317" type="line"/>
      <point x="23" y="317" type="line"/>
      <point x="23" y="478" type="line"/>
      <point x="183" y="478" type="line"/>
    </contour>
  </outline>
</glyph>
<glyph name="semicolon" format="2">
  <advance width="269"/>
  <unicode hex="003B"/>
  <outline>
    <contour>
      <point x="182.805" y="-46.0352" type="line"/>
      <point x="217.805" y="17"/>
      <point x="246.113" y="79"/>
      <point x="246.113" y="180" type="curve"/>
      <point x="86.1133" y="180" type="line"/>
      <point x="86.1133" y="111.887"/>
      <point x="60.6116" y="12.6292"/>
      <point x="22.5" y="-46.0352" type="curve"/>
    </contour>
    <contour>
      <point x="246.113" y="505.49" type="line"/>
      <point x="86.1133" y="505.49" type="line"/>
      <point x="86.1133" y="345.024" type="line"/>
      <point x="246.113" y="345.024" type="line"/>
    </contour>
  </outline>
</glyph>
<glyph name="less" format="2">
  <advance width="284"/>
  <unicode hex="003C"/>
  <outline>
    <contour>
      <point x="272" y="216" type="line"/>
      <point x="126" y="308" type="line"/>
      <point x="272" y="400" type="line"/>
      <point x="272" y="542" type="line"/>
      <point x="13" y="379" type="line"/>
      <point x="13" y="237" type="line"/>
      <point x="272" y="74" type="line"/>
    </contour>
  </outline>
</glyph>
<glyph name="equal" format="2">
  <advance width="405"/>
  <unicode hex="003D"/>
  <outline>
    <contour>
      <point x="383" y="84" type="line"/>
      <point x="23" y="84" type="line"/>
      <point x="23" y="244" type="line"/>
      <point x="383" y="244" type="line"/>
    </contour>
    <contour>
      <point x="383" y="275" type="line"/>
      <point x="23" y="275" type="line"/>
      <point x="23" y="435" type="line"/>
      <point x="383" y="435" type="line"/>
    </contour>
  </outline>
</glyph>
<glyph name="greater" format="2">
  <advance width="294"/>
  <unicode hex="003E"/>
  <outline>
    <contour>
      <point x="23" y="216" type="line"/>
      <point x="169" y="308" type="line"/>
      <point x="23" y="400" type="line"/>
      <point x="23" y="542" type="line"/>
      <point x="282" y="379" type="line"/>
      <point x="282" y="237" type="line"/>
      <point x="23" y="74" type="line"/>
    </contour>
  </outline>
</glyph>
<glyph name="question" format="2">
  <advance width="481"/>
  <unicode hex="003F"/>
  <outline>
    <contour>
      <point x="159" y="0" type="line"/>
      <point x="319" y="0" type="line"/>
      <point x="319" y="160" type="line"/>
      <point x="159" y="160" type="line"/>
    </contour>
    <contour>
      <point x="246" y="643" type="curve" smooth="yes"/>
      <point x="102" y="643"/>
      <point x="23" y="525"/>
      <point x="23" y="382" type="curve"/>
      <point x="183" y="382" type="line"/>
      <point x="183" y="428"/>
      <point x="194" y="486"/>
      <point x="252" y="486" type="curve" smooth="yes"/>
      <point x="281" y="486"/>
      <point x="299" y="472"/>
      <point x="299" y="442" type="curve" smooth="yes"/>
      <point x="299" y="428"/>
      <point x="295" y="413"/>
      <point x="266" y="390" type="curve" smooth="yes"/>
      <point x="261" y="386" type="line" smooth="yes"/>
      <point x="222" y="355"/>
      <point x="159" y="307"/>
      <point x="159" y="195" type="curve"/>
      <point x="319" y="195" type="line"/>
      <point x="319" y="231"/>
      <point x="329" y="238"/>
      <point x="361" y="261" type="curve" smooth="yes"/>
      <point x="424" y="307"/>
      <point x="459" y="351"/>
      <point x="459" y="430" type="curve" smooth="yes"/>
      <point x="459" y="553"/>
      <point x="373" y="643"/>
    </contour>
  </outline>
</glyph>
<glyph name="at" format="2">
  <advance width="405"/>
  <unicode hex="0040"/>
  <outline>
    <contour>
      <point x="202" y="439" type="curve" smooth="yes"/>
      <point x="103" y="439"/>
      <point x="23" y="357"/>
      <point x="23" y="259" type="curve" smooth="yes"/>
      <point x="23" y="161"/>
      <point x="102" y="79"/>
      <point x="201" y="79" type="curve"/>
      <point x="203" y="79" type="line"/>
      <point x="230" y="79"/>
      <point x="257" y="85"/>
      <point x="281" y="97" type="curve"/>
      <point x="251" y="160" type="line"/>
      <point x="235" y="152"/>
      <point x="219" y="149"/>
      <point x="203" y="149" type="curve" smooth="yes"/>
      <point x="142" y="149"/>
      <point x="93" y="199"/>
      <point x="93" y="259" type="curve" smooth="yes"/>
      <point x="93" y="319"/>
      <point x="141" y="369"/>
      <point x="202" y="369" type="curve" smooth="yes"/>
      <point x="262" y="369"/>
      <point x="313" y="320"/>
      <point x="313" y="259" type="curve"/>
      <point x="313" y="254"/>
      <point x="313" y="249"/>
      <point x="312" y="245" type="curve" smooth="yes"/>
      <point x="311" y="240"/>
      <point x="308" y="238"/>
      <point x="305" y="238" type="curve" smooth="yes"/>
      <point x="300" y="238"/>
      <point x="297" y="241"/>
      <point x="297" y="245" type="curve"/>
      <point x="297" y="259" type="line"/>
      <point x="297" y="311"/>
      <point x="255" y="353"/>
      <point x="203" y="353" type="curve" smooth="yes"/>
      <point x="151" y="353"/>
      <point x="109" y="311"/>
      <point x="109" y="259" type="curve" smooth="yes"/>
      <point x="109" y="207"/>
      <point x="151" y="165"/>
      <point x="203" y="165" type="curve" smooth="yes"/>
      <point x="224" y="165"/>
      <point x="243" y="172"/>
      <point x="258" y="183" type="curve"/>
      <point x="271" y="173"/>
      <point x="287" y="168"/>
      <point x="305" y="168" type="curve" smooth="yes"/>
      <point x="358" y="168"/>
      <point x="383" y="212"/>
      <point x="383" y="260" type="curve"/>
      <point x="383" y="359"/>
      <point x="300" y="439"/>
    </contour>
    <contour>
      <point x="203" y="235" type="curve" smooth="yes"/>
      <point x="190" y="235"/>
      <point x="179" y="246"/>
      <point x="179" y="259" type="curve" smooth="yes"/>
      <point x="179" y="272"/>
      <point x="190" y="283"/>
      <point x="203" y="283" type="curve" smooth="yes"/>
      <point x="216" y="283"/>
      <point x="227" y="272"/>
      <point x="227" y="259" type="curve" smooth="yes"/>
      <point x="227" y="246"/>
      <point x="216" y="235"/>
    </contour>
  </outline>
</glyph>
<glyph name="A" format="2">
  <advance width="734"/>
  <unicode hex="0041"/>
  <outline>
    <contour>
      <point x="282" y="683" type="line"/>
      <point x="13" y="0" type="line"/>
      <point x="185" y="0" type="line"/>
      <point x="253" y="173" type="line"/>
      <point x="482" y="173" type="line"/>
      <point x="550" y="0" type="line"/>
      <point x="722" y="0" type="line"/>
      <point x="453" y="683" type="line"/>
    </contour>
    <contour>
      <point x="316" y="333" type="line"/>
      <point x="367" y="464" type="line"/>
      <point x="419" y="333" type="line"/>
    </contour>
  </outline>
</glyph>
<glyph name="B" format="2">
  <advance width="653"/>
  <unicode hex="0042"/>
  <outline>
    <contour>
      <point x="363" y="0" type="curve" smooth="yes"/>
      <point x="43" y="0" type="line"/>
      <point x="43" y="683" type="line"/>
      <point x="363" y="683" type="line" smooth="yes"/>
      <point x="482" y="683"/>
      <point x="603" y="614"/>
      <point x="603" y="485" type="curve" smooth="yes"/>
      <point x="603" y="442"/>
      <point x="589" y="403"/>
      <point x="565" y="370" type="curve"/>
      <point x="607" y="331"/>
      <point x="631" y="277"/>
      <point x="631" y="218" type="curve" smooth="yes"/>
      <point x="631" y="76"/>
      <point x="494" y="0"/>
    </contour>
    <contour>
      <point x="203" y="160" type="line"/>
      <point x="363" y="160" type="line" smooth="yes"/>
      <point x="434" y="160"/>
      <point x="471" y="191"/>
      <point x="471" y="222" type="curve" smooth="yes"/>
      <point x="471" y="249"/>
      <point x="438" y="279"/>
      <point x="367" y="279" type="curve"/>
      <point x="363" y="279" type="line"/>
      <point x="203" y="279" type="line"/>
    </contour>
    <contour>
      <point x="203" y="439" type="line"/>
      <point x="367" y="439" type="line"/>
      <point x="391" y="439"/>
      <point x="443" y="449"/>
      <point x="443" y="480" type="curve" smooth="yes"/>
      <point x="443" y="502"/>
      <point x="418" y="523"/>
      <point x="363" y="523" type="curve" smooth="yes"/>
      <point x="203" y="523" type="line"/>
    </contour>
  </outline>
</glyph>
<glyph name="C" format="2">
  <advance width="713"/>
  <unicode hex="0043"/>
  <outline>
    <contour>
      <point x="503" y="218" type="line"/>
      <point x="470" y="179"/>
      <point x="421" y="155"/>
      <point x="365" y="155" type="curve" smooth="yes"/>
      <point x="263" y="155"/>
      <point x="183" y="236"/>
      <point x="183" y="340" type="curve" smooth="yes"/>
      <point x="183" y="444"/>
      <point x="265" y="528"/>
      <point x="365" y="528" type="curve" smooth="yes"/>
      <point x="419" y="528"/>
      <point x="468" y="504"/>
      <point x="501" y="465" type="curve"/>
      <point x="685" y="465" type="line"/>
      <point x="635" y="597"/>
      <point x="508" y="688"/>
      <point x="365" y="688" type="curve" smooth="yes"/>
      <point x="176" y="688"/>
      <point x="23" y="531"/>
      <point x="23" y="340" type="curve" smooth="yes"/>
      <point x="23" y="150"/>
      <point x="174" y="-5"/>
      <point x="364" y="-5" type="curve" smooth="yes"/>
      <point x="508" y="-5"/>
      <point x="636" y="84"/>
      <point x="686" y="218" type="curve"/>
    </contour>
  </outline>
</glyph>
<glyph name="D" format="2">
  <advance width="681"/>
  <unicode hex="0044"/>
  <outline>
    <contour>
      <point x="289" y="0" type="curve" smooth="yes"/>
      <point x="43" y="0" type="line"/>
      <point x="43" y="682" type="line"/>
      <point x="289" y="682" type="line" smooth="yes"/>
      <point x="489" y="682"/>
      <point x="659" y="551"/>
      <point x="659" y="342" type="curve" smooth="yes"/>
      <point x="659" y="134"/>
      <point x="492" y="0"/>
    </contour>
    <contour>
      <point x="203" y="160" type="line"/>
      <point x="289" y="160" type="line" smooth="yes"/>
      <point x="434" y="160"/>
      <point x="499" y="251"/>
      <point x="499" y="341" type="curve" smooth="yes"/>
      <point x="499" y="431"/>
      <point x="434" y="522"/>
      <point x="289" y="522" type="curve" smooth="yes"/>
      <point x="203" y="522" type="line"/>
    </contour>
  </outline>
  <guideline angle="0" x="0" y="840"/>
</glyph>
<glyph name="E" format="2">
  <advance width="563"/>
  <unicode hex="0045"/>
  <outline>
    <contour>
      <point x="203" y="160" type="line"/>
      <point x="203" y="274" type="line"/>
      <point x="496" y="274" type="line"/>
      <point x="496" y="434" type="line"/>
      <point x="203" y="434" type="line"/>
      <point x="203" y="522" type="line"/>
      <point x="529" y="522" type="line"/>
      <point x="529" y="682" type="line"/>
      <point x="43" y="682" type="line"/>
      <point x="43" y="0" type="line"/>
      <point x="536" y="0" type="line"/>
      <point x="536" y="160" type="line"/>
    </contour>
  </outline>
</glyph>
<glyph name="F" format="2">
  <advance width="547"/>
  <unicode hex="0046"/>
  <outline>
    <contour>
      <point x="535" y="520" type="line"/>
      <point x="535" y="680" type="line"/>
      <point x="43" y="680" type="line"/>
      <point x="43" y="0" type="line"/>
      <point x="203" y="0" type="line"/>
      <point x="203" y="249" type="line"/>
      <point x="495" y="249" type="line"/>
      <point x="495" y="409" type="line"/>
      <point x="203" y="409" type="line"/>
      <point x="203" y="520" type="line"/>
    </contour>
  </outline>
</glyph>
<glyph name="G" format="2">
  <advance width="727"/>
  <unicode hex="0047"/>
  <outline>
    <contour>
      <point x="369" y="243" type="line"/>
      <point x="508" y="243" type="line"/>
      <point x="472" y="165"/>
      <point x="393" y="155"/>
      <point x="359" y="155" type="curve" smooth="yes"/>
      <point x="260" y="155"/>
      <point x="183" y="239"/>
      <point x="183" y="342" type="curve" smooth="yes"/>
      <point x="183" y="444"/>
      <point x="260" y="528"/>
      <point x="359" y="528" type="curve" smooth="yes"/>
      <point x="385" y="528"/>
      <point x="431" y="522"/>
      <point x="468" y="493" type="curve"/>
      <point x="659" y="493" type="line"/>
      <point x="609" y="617"/>
      <point x="492" y="688"/>
      <point x="361" y="688" type="curve" smooth="yes"/>
      <point x="167" y="688"/>
      <point x="23" y="530"/>
      <point x="23" y="340" type="curve" smooth="yes"/>
      <point x="23" y="150"/>
      <point x="169" y="-5"/>
      <point x="365" y="-5" type="curve" smooth="yes"/>
      <point x="546" y="-5"/>
      <point x="677" y="128"/>
      <point x="686" y="319" type="curve" smooth="yes"/>
      <point x="690" y="403" type="line"/>
      <point x="369" y="403" type="line"/>
    </contour>
  </outline>
</glyph>
<glyph name="H" format="2">
  <advance width="720"/>
  <unicode hex="0048"/>
  <outline>
    <contour>
      <point x="518" y="683" type="line"/>
      <point x="518" y="442" type="line"/>
      <point x="203" y="442" type="line"/>
      <point x="203" y="683" type="line"/>
      <point x="43" y="683" type="line"/>
      <point x="43" y="0" type="line"/>
      <point x="203" y="0" type="line"/>
      <point x="203" y="282" type="line"/>
      <point x="518" y="282" type="line"/>
      <point x="518" y="0" type="line"/>
      <point x="678" y="0" type="line"/>
      <point x="678" y="683" type="line"/>
    </contour>
  </outline>
</glyph>
<glyph name="I" format="2">
  <advance width="245"/>
  <unicode hex="0049"/>
  <outline>
    <contour>
      <point x="203" y="0" type="line"/>
      <point x="43" y="0" type="line"/>
      <point x="43" y="683" type="line"/>
      <point x="203" y="683" type="line"/>
    </contour>
  </outline>
</glyph>
<glyph name="J" format="2">
  <advance width="573"/>
  <unicode hex="004A"/>
  <outline>
    <contour>
      <point x="279" y="-5" type="curve" smooth="yes"/>
      <point x="144" y="-5"/>
      <point x="28" y="102"/>
      <point x="28" y="240" type="curve" smooth="yes"/>
      <point x="28" y="269" type="line"/>
      <point x="188" y="269" type="line"/>
      <point x="188" y="240" type="line" smooth="yes"/>
      <point x="188" y="193"/>
      <point x="229" y="155"/>
      <point x="279" y="155" type="curve" smooth="yes"/>
      <point x="330" y="155"/>
      <point x="371" y="193"/>
      <point x="371" y="240" type="curve" smooth="yes"/>
      <point x="371" y="683" type="line"/>
      <point x="531" y="683" type="line"/>
      <point x="531" y="240" type="line" smooth="yes"/>
      <point x="531" y="103"/>
      <point x="416" y="-5"/>
    </contour>
  </outline>
  <guideline angle="0" x="0" y="684"/>
</glyph>
<glyph name="K" format="2">
  <advance width="702"/>
  <unicode hex="004B"/>
  <outline>
    <contour>
      <point x="690" y="0" type="line"/>
      <point x="392" y="400" type="line"/>
      <point x="684" y="683" type="line"/>
      <point x="454" y="683" type="line"/>
      <point x="203" y="439" type="line"/>
      <point x="203" y="683" type="line"/>
      <point x="43" y="683" type="line"/>
      <point x="43" y="0" type="line"/>
      <point x="203" y="0" type="line"/>
      <point x="203" y="216" type="line"/>
      <point x="277" y="288" type="line"/>
      <point x="491" y="0" type="line"/>
    </contour>
  </outline>
</glyph>
<glyph name="L" format="2">
  <advance width="545"/>
  <unicode hex="004C"/>
  <outline>
    <contour>
      <point x="533" y="0" type="line"/>
      <point x="43" y="0" type="line"/>
      <point x="43" y="683" type="line"/>
      <point x="203" y="683" type="line"/>
      <point x="203" y="160" type="line"/>
      <point x="533" y="160" type="line"/>
    </contour>
  </outline>
</glyph>
<glyph name="M" format="2">
  <advance width="867"/>
  <unicode hex="004D"/>
  <outline>
    <contour>
      <point x="657" y="683" type="line"/>
      <point x="432" y="192" type="line"/>
      <point x="206" y="683" type="line"/>
      <point x="38" y="683" type="line"/>
      <point x="38" y="0" type="line"/>
      <point x="198" y="0" type="line"/>
      <point x="198" y="317" type="line"/>
      <point x="344" y="0" type="line"/>
      <point x="519" y="0" type="line"/>
      <point x="665" y="317" type="line"/>
      <point x="665" y="0" type="line"/>
      <point x="825" y="0" type="line"/>
      <point x="825" y="683" type="line"/>
    </contour>
  </outline>
</glyph>
<glyph name="N" format="2">
  <advance width="709"/>
  <unicode hex="004E"/>
  <outline>
    <contour>
      <point x="667" y="0" type="line"/>
      <point x="667" y="683" type="line"/>
      <point x="507" y="683" type="line"/>
      <point x="507" y="260" type="line"/>
      <point x="220" y="683" type="line"/>
      <point x="43" y="683" type="line"/>
      <point x="43" y="0" type="line"/>
      <point x="203" y="0" type="line"/>
      <point x="203" y="423" type="line"/>
      <point x="490" y="0" type="line"/>
    </contour>
  </outline>
</glyph>
<glyph name="O" format="2">
  <advance width="730"/>
  <unicode hex="004F"/>
  <outline>
    <contour>
      <point x="365" y="-5" type="curve" smooth="yes"/>
      <point x="176" y="-5"/>
      <point x="23" y="149"/>
      <point x="23" y="340" type="curve" smooth="yes"/>
      <point x="23" y="528"/>
      <point x="173" y="688"/>
      <point x="365" y="688" type="curve" smooth="yes"/>
      <point x="555" y="688"/>
      <point x="708" y="531"/>
      <point x="708" y="340" type="curve" smooth="yes"/>
      <point x="708" y="150"/>
      <point x="556" y="-5"/>
    </contour>
    <contour>
      <point x="365" y="528" type="curve" smooth="yes"/>
      <point x="265" y="528"/>
      <point x="183" y="444"/>
      <point x="183" y="340" type="curve" smooth="yes"/>
      <point x="183" y="236"/>
      <point x="263" y="155"/>
      <point x="365" y="155" type="curve" smooth="yes"/>
      <point x="468" y="155"/>
      <point x="548" y="236"/>
      <point x="548" y="340" type="curve" smooth="yes"/>
      <point x="548" y="444"/>
      <point x="466" y="528"/>
    </contour>
  </outline>
</glyph>
<glyph name="P" format="2">
  <advance width="668"/>
  <unicode hex="0050"/>
  <outline>
    <contour>
      <point x="203" y="0" type="line"/>
      <point x="43" y="0" type="line"/>
      <point x="43" y="683" type="line"/>
      <point x="394" y="683" type="line" smooth="yes"/>
      <point x="530" y="683"/>
      <point x="646" y="596"/>
      <point x="646" y="455" type="curve" smooth="yes"/>
      <point x="646" y="314"/>
      <point x="531" y="219"/>
      <point x="394" y="219" type="curve" smooth="yes"/>
      <point x="203" y="219" type="line"/>
    </contour>
    <contour>
      <point x="203" y="379" type="line"/>
      <point x="394" y="379" type="line" smooth="yes"/>
      <point x="462" y="379"/>
      <point x="486" y="419"/>
      <point x="486" y="455" type="curve" smooth="yes"/>
      <point x="486" y="505"/>
      <point x="438" y="523"/>
      <point x="394" y="523" type="curve" smooth="yes"/>
      <point x="203" y="523" type="line"/>
    </contour>
  </outline>
</glyph>
<glyph name="Q" format="2">
  <advance width="731"/>
  <unicode hex="0051"/>
  <outline>
    <contour>
      <point x="709" y="77" type="line"/>
      <point x="638" y="131" type="line"/>
      <point x="683" y="191"/>
      <point x="708" y="264"/>
      <point x="708" y="340" type="curve" smooth="yes"/>
      <point x="708" y="529"/>
      <point x="558" y="688"/>
      <point x="365" y="688" type="curve" smooth="yes"/>
      <point x="176" y="688"/>
      <point x="23" y="531"/>
      <point x="23" y="340" type="curve" smooth="yes"/>
      <point x="23" y="150"/>
      <point x="174" y="-5"/>
      <point x="365" y="-5" type="curve" smooth="yes"/>
      <point x="415" y="-5"/>
      <point x="465" y="6"/>
      <point x="510" y="27" type="curve"/>
      <point x="613" y="-50" type="line"/>
    </contour>
    <contour>
      <point x="183" y="340" type="curve" smooth="yes"/>
      <point x="183" y="444"/>
      <point x="265" y="528"/>
      <point x="365" y="528" type="curve" smooth="yes"/>
      <point x="466" y="528"/>
      <point x="548" y="444"/>
      <point x="548" y="340" type="curve" smooth="yes"/>
      <point x="548" y="297"/>
      <point x="534" y="258"/>
      <point x="510" y="227" type="curve"/>
      <point x="479" y="251" type="line"/>
      <point x="411" y="161" type="line"/>
      <point x="396" y="157"/>
      <point x="381" y="155"/>
      <point x="365" y="155" type="curve" smooth="yes"/>
      <point x="263" y="155"/>
      <point x="183" y="237"/>
    </contour>
  </outline>
</glyph>
<glyph name="R" format="2">
  <advance width="685"/>
  <unicode hex="0052"/>
  <outline>
    <contour>
      <point x="203" y="0" type="line"/>
      <point x="203" y="217" type="line"/>
      <point x="394" y="217" type="line"/>
      <point x="496" y="0" type="line"/>
      <point x="673" y="0" type="line"/>
      <point x="549" y="264" type="line"/>
      <point x="610" y="308"/>
      <point x="646" y="379"/>
      <point x="646" y="455" type="curve" smooth="yes"/>
      <point x="646" y="594"/>
      <point x="529" y="681"/>
      <point x="394" y="681" type="curve" smooth="yes"/>
      <point x="43" y="681" type="line"/>
      <point x="43" y="0" type="line"/>
    </contour>
    <contour>
      <point x="203" y="521" type="line"/>
      <point x="394" y="521" type="line" smooth="yes"/>
      <point x="438" y="521"/>
      <point x="486" y="503"/>
      <point x="486" y="453" type="curve" smooth="yes"/>
      <point x="486" y="417"/>
      <point x="462" y="377"/>
      <point x="394" y="377" type="curve" smooth="yes"/>
      <point x="203" y="377" type="line"/>
    </contour>
  </outline>
</glyph>
<glyph name="S" format="2">
  <advance width="628"/>
  <unicode hex="0053"/>
  <outline>
    <contour>
      <point x="326" y="-5" type="curve" smooth="yes"/>
      <point x="180" y="-5"/>
      <point x="23" y="77"/>
      <point x="23" y="238" type="curve" smooth="yes"/>
      <point x="23" y="246"/>
      <point x="23" y="254"/>
      <point x="24" y="262" type="curve"/>
      <point x="183" y="246" type="line"/>
      <point x="183" y="244"/>
      <point x="183" y="241"/>
      <point x="183" y="238" type="curve" smooth="yes"/>
      <point x="183" y="175"/>
      <point x="276" y="155"/>
      <point x="329" y="155" type="curve" smooth="yes"/>
      <point x="373" y="155"/>
      <point x="446" y="168"/>
      <point x="446" y="218" type="curve" smooth="yes"/>
      <point x="446" y="226"/>
      <point x="446" y="232"/>
      <point x="427" y="243" type="curve" smooth="yes"/>
      <point x="397" y="258"/>
      <point x="351" y="269"/>
      <point x="307" y="279" type="curve" smooth="yes"/>
      <point x="189" y="305"/>
      <point x="45" y="343"/>
      <point x="45" y="487" type="curve" smooth="yes"/>
      <point x="45" y="630"/>
      <point x="186" y="688"/>
      <point x="312" y="688" type="curve" smooth="yes"/>
      <point x="456" y="688"/>
      <point x="589" y="612"/>
      <point x="589" y="448" type="curve"/>
      <point x="429" y="448" type="line"/>
      <point x="429" y="467"/>
      <point x="429" y="528"/>
      <point x="311" y="528" type="curve" smooth="yes"/>
      <point x="295" y="528"/>
      <point x="205" y="520"/>
      <point x="205" y="492" type="curve" smooth="yes"/>
      <point x="205" y="485"/>
      <point x="205" y="480"/>
      <point x="224" y="470" type="curve" smooth="yes"/>
      <point x="253" y="455"/>
      <point x="298" y="445"/>
      <point x="342" y="435" type="curve" smooth="yes"/>
      <point x="465" y="407"/>
      <point x="606" y="370"/>
      <point x="606" y="218" type="curve" smooth="yes"/>
      <point x="606" y="65"/>
      <point x="463" y="-5"/>
    </contour>
  </outline>
</glyph>
<glyph name="T" format="2">
  <advance width="545"/>
  <unicode hex="0054"/>
  <outline>
    <contour>
      <point x="533" y="683" type="line"/>
      <point x="13" y="683" type="line"/>
      <point x="13" y="523" type="line"/>
      <point x="195" y="523" type="line"/>
      <point x="195" y="0" type="line"/>
      <point x="355" y="0" type="line"/>
      <point x="355" y="523" type="line"/>
      <point x="533" y="523" type="line"/>
    </contour>
  </outline>
</glyph>
<glyph name="U" format="2">
  <advance width="690"/>
  <unicode hex="0055"/>
  <outline>
    <contour>
      <point x="493" y="683" type="line"/>
      <point x="493" y="300" type="line" smooth="yes"/>
      <point x="493" y="220"/>
      <point x="428" y="155"/>
      <point x="348" y="155" type="curve" smooth="yes"/>
      <point x="268" y="155"/>
      <point x="203" y="220"/>
      <point x="203" y="300" type="curve" smooth="yes"/>
      <point x="203" y="683" type="line"/>
      <point x="43" y="683" type="line"/>
      <point x="43" y="300" type="line" smooth="yes"/>
      <point x="43" y="133"/>
      <point x="179" y="-5"/>
      <point x="348" y="-5" type="curve" smooth="yes"/>
      <point x="515" y="-5"/>
      <point x="653" y="131"/>
      <point x="653" y="300" type="curve" smooth="yes"/>
      <point x="653" y="683" type="line"/>
    </contour>
  </outline>
</glyph>
<glyph name="V" format="2">
  <advance width="716"/>
  <unicode hex="0056"/>
  <outline>
    <contour>
      <point x="533" y="683" type="line"/>
      <point x="359" y="225" type="line"/>
      <point x="184" y="683" type="line"/>
      <point x="13" y="683" type="line"/>
      <point x="273" y="0" type="line"/>
      <point x="444" y="0" type="line"/>
      <point x="704" y="683" type="line"/>
    </contour>
  </outline>
</glyph>
<glyph name="W" format="2">
  <advance width="1003"/>
  <unicode hex="0057"/>
  <outline>
    <contour>
      <point x="824" y="683" type="line"/>
      <point x="704" y="281" type="line"/>
      <point x="585" y="683" type="line"/>
      <point x="419" y="683" type="line"/>
      <point x="299" y="281" type="line"/>
      <point x="180" y="683" type="line"/>
      <point x="13" y="683" type="line"/>
      <point x="216" y="0" type="line"/>
      <point x="383" y="0" type="line"/>
      <point x="502" y="401" type="line"/>
      <point x="621" y="0" type="line"/>
      <point x="788" y="0" type="line"/>
      <point x="991" y="683" type="line"/>
    </contour>
  </outline>
</glyph>
<glyph name="X" format="2">
  <advance width="727"/>
  <unicode hex="0058"/>
  <outline>
    <contour>
      <point x="696" y="683" type="line"/>
      <point x="500" y="683" type="line"/>
      <point x="364" y="493" type="line"/>
      <point x="228" y="683" type="line"/>
      <point x="32" y="683" type="line"/>
      <point x="266" y="355" type="line"/>
      <point x="13" y="0" type="line"/>
      <point x="209" y="0" type="line"/>
      <point x="364" y="217" type="line"/>
      <point x="519" y="0" type="line"/>
      <point x="715" y="0" type="line"/>
      <point x="462" y="355" type="line"/>
    </contour>
  </outline>
  <guideline angle="0" x="0" y="683"/>
</glyph>
<glyph name="Y" format="2">
  <advance width="715"/>
  <unicode hex="0059"/>
  <outline>
    <contour>
      <point x="516" y="683" type="line"/>
      <point x="358" y="418" type="line"/>
      <point x="199" y="683" type="line"/>
      <point x="13" y="683" type="line"/>
      <point x="278" y="239" type="line"/>
      <point x="278" y="0" type="line"/>
      <point x="438" y="0" type="line"/>
      <point x="438" y="239" type="line"/>
      <point x="703" y="683" type="line"/>
    </contour>
  </outline>
</glyph>
<glyph name="Z" format="2">
  <advance width="600"/>
  <unicode hex="005A"/>
  <outline>
    <contour>
      <point x="573" y="523" type="line"/>
      <point x="573" y="683" type="line"/>
      <point x="72" y="683" type="line"/>
      <point x="72" y="522" type="line"/>
      <point x="354" y="522" type="line"/>
      <point x="28" y="169" type="line"/>
      <point x="28" y="0" type="line"/>
      <point x="567" y="0" type="line"/>
      <point x="567" y="161" type="line"/>
      <point x="238" y="161" type="line"/>
    </contour>
  </outline>
</glyph>
<glyph name="bracketleft" format="2">
  <advance width="294"/>
  <unicode hex="005B"/>
  <outline>
    <contour>
      <point x="282" y="-160" type="line"/>
      <point x="43" y="-160" type="line"/>
      <point x="43" y="683" type="line"/>
      <point x="282" y="683" type="line"/>
      <point x="282" y="533" type="line"/>
      <point x="193" y="533" type="line"/>
      <point x="193" y="-10" type="line"/>
      <point x="282" y="-10" type="line"/>
    </contour>
  </outline>
</glyph>
<glyph name="backslash" format="2">
  <advance width="595"/>
  <unicode hex="005C"/>
  <outline>
    <contour>
      <point x="189" y="684" type="line"/>
      <point x="583" y="-164" type="line"/>
      <point x="407" y="-164" type="line"/>
      <point x="13" y="684" type="line"/>
    </contour>
  </outline>
</glyph>
<glyph name="bracketright" format="2">
  <advance width="294"/>
  <unicode hex="005D"/>
  <outline>
    <contour>
      <point x="252" y="-160" type="line"/>
      <point x="13" y="-160" type="line"/>
      <point x="13" y="-10" type="line"/>
      <point x="102" y="-10" type="line"/>
      <point x="102" y="533" type="line"/>
      <point x="13" y="533" type="line"/>
      <point x="13" y="683" type="line"/>
      <point x="252" y="683" type="line"/>
    </contour>
  </outline>
</glyph>
<glyph name="ltr94" format="2">
  <advance width="467"/>
  <unicode hex="005E"/>
  <outline>
    <contour>
      <point x="142" y="344" type="line"/>
      <point x="234" y="490" type="line"/>
      <point x="326" y="344" type="line"/>
      <point x="467" y="344" type="line"/>
      <point x="305" y="603" type="line"/>
      <point x="163" y="603" type="line"/>
      <point x="0" y="344" type="line"/>
    </contour>
  </outline>
</glyph>
<glyph name="ltr95" format="2">
  <advance width="455"/>
  <unicode hex="005F"/>
  <outline>
    <contour>
      <point x="455" y="0" type="line"/>
      <point x="0" y="0" type="line"/>
      <point x="0" y="130" type="line"/>
      <point x="455" y="130" type="line"/>
    </contour>
  </outline>
</glyph>
<glyph name="grave" format="2">
  <advance width="249"/>
  <unicode hex="0060"/>
  <outline>
    <contour>
      <point x="186" y="436" type="line"/>
      <point x="214" y="497"/>
      <point x="237" y="572"/>
      <point x="237" y="639" type="curve"/>
      <point x="87" y="639" type="line"/>
      <point x="87" y="586"/>
      <point x="55" y="485"/>
      <point x="13" y="436" type="curve"/>
    </contour>
  </outline>
</glyph>
<glyph name="a" format="2">
  <advance width="573"/>
  <unicode hex="0061"/>
  <outline>
    <contour>
      <point x="371" y="518" type="line"/>
      <point x="371" y="504" type="line"/>
      <point x="341" y="517"/>
      <point x="309" y="523"/>
      <point x="277" y="523" type="curve" smooth="yes"/>
      <point x="133" y="523"/>
      <point x="23" y="400"/>
      <point x="23" y="258" type="curve" smooth="yes"/>
      <point x="23" y="116"/>
      <point x="132" y="-5"/>
      <point x="277" y="-5" type="curve" smooth="yes"/>
      <point x="309" y="-5"/>
      <point x="341" y="1"/>
      <point x="371" y="13" type="curve"/>
      <point x="371" y="0" type="line"/>
      <point x="531" y="0" type="line"/>
      <point x="531" y="518" type="line"/>
    </contour>
    <contour>
      <point x="277" y="155" type="curve" smooth="yes"/>
      <point x="224" y="155"/>
      <point x="183" y="200"/>
      <point x="183" y="258" type="curve" smooth="yes"/>
      <point x="183" y="316"/>
      <point x="225" y="363"/>
      <point x="277" y="363" type="curve" smooth="yes"/>
      <point x="329" y="363"/>
      <point x="371" y="316"/>
      <point x="371" y="258" type="curve" smooth="yes"/>
      <point x="371" y="200"/>
      <point x="330" y="155"/>
    </contour>
  </outline>
</glyph>
<glyph name="b" format="2">
  <advance width="573"/>
  <unicode hex="0062"/>
  <outline>
    <contour>
      <point x="297" y="523" type="curve" smooth="yes"/>
      <point x="265" y="523"/>
      <point x="233" y="517"/>
      <point x="203" y="504" type="curve"/>
      <point x="203" y="683" type="line"/>
      <point x="43" y="683" type="line"/>
      <point x="43" y="272" type="line" smooth="yes"/>
      <point x="43" y="270"/>
      <point x="43" y="267"/>
      <point x="43" y="265" type="curve" smooth="yes"/>
      <point x="43" y="263"/>
      <point x="43" y="261"/>
      <point x="43" y="259" type="curve" smooth="yes"/>
      <point x="43" y="256"/>
      <point x="43" y="253"/>
      <point x="43" y="251" type="curve" smooth="yes"/>
      <point x="43" y="248"/>
      <point x="43" y="246"/>
      <point x="43" y="244" type="curve" smooth="yes"/>
      <point x="43" y="0" type="line"/>
      <point x="203" y="0" type="line"/>
      <point x="203" y="13" type="line"/>
      <point x="233" y="1"/>
      <point x="265" y="-5"/>
      <point x="297" y="-5" type="curve" smooth="yes"/>
      <point x="440" y="-5"/>
      <point x="551" y="115"/>
      <point x="551" y="258" type="curve" smooth="yes"/>
      <point x="551" y="400"/>
      <point x="440" y="523"/>
    </contour>
    <contour>
      <point x="297" y="155" type="curve" smooth="yes"/>
      <point x="247" y="155"/>
      <point x="208" y="195"/>
      <point x="203" y="249" type="curve"/>
      <point x="203" y="267" type="line"/>
      <point x="208" y="321"/>
      <point x="248" y="363"/>
      <point x="297" y="363" type="curve" smooth="yes"/>
      <point x="349" y="363"/>
      <point x="391" y="316"/>
      <point x="391" y="258" type="curve" smooth="yes"/>
      <point x="391" y="200"/>
      <point x="350" y="155"/>
    </contour>
  </outline>
</glyph>
<glyph name="c" format="2">
  <advance width="556"/>
  <unicode hex="0063"/>
  <outline>
    <contour>
      <point x="360" y="192" type="line"/>
      <point x="345" y="167"/>
      <point x="318" y="155"/>
      <point x="287" y="155" type="curve" smooth="yes"/>
      <point x="226" y="155"/>
      <point x="183" y="200"/>
      <point x="183" y="258" type="curve" smooth="yes"/>
      <point x="183" y="316"/>
      <point x="227" y="363"/>
      <point x="284" y="363" type="curve" smooth="yes"/>
      <point x="303" y="363"/>
      <point x="328" y="358"/>
      <point x="348" y="340" type="curve"/>
      <point x="525" y="340" type="line"/>
      <point x="495" y="452"/>
      <point x="400" y="523"/>
      <point x="286" y="523" type="curve" smooth="yes"/>
      <point x="138" y="523"/>
      <point x="23" y="404"/>
      <point x="23" y="258" type="curve" smooth="yes"/>
      <point x="23" y="112"/>
      <point x="137" y="-5"/>
      <point x="286" y="-5" type="curve" smooth="yes"/>
      <point x="406" y="-5"/>
      <point x="504" y="71"/>
      <point x="529" y="192" type="curve"/>
    </contour>
  </outline>
</glyph>
<glyph name="d" format="2">
  <advance width="574"/>
  <unicode hex="0064"/>
  <outline>
    <contour>
      <point x="372" y="683" type="line"/>
      <point x="372" y="504" type="line"/>
      <point x="342" y="517"/>
      <point x="310" y="523"/>
      <point x="277" y="523" type="curve" smooth="yes"/>
      <point x="134" y="523"/>
      <point x="23" y="401"/>
      <point x="23" y="258" type="curve" smooth="yes"/>
      <point x="23" y="116"/>
      <point x="133" y="-5"/>
      <point x="277" y="-5" type="curve" smooth="yes"/>
      <point x="310" y="-5"/>
      <point x="342" y="1"/>
      <point x="372" y="14" type="curve"/>
      <point x="372" y="0" type="line"/>
      <point x="532" y="0" type="line"/>
      <point x="532" y="683" type="line"/>
    </contour>
    <contour>
      <point x="277" y="155" type="curve" smooth="yes"/>
      <point x="224" y="155"/>
      <point x="183" y="200"/>
      <point x="183" y="258" type="curve" smooth="yes"/>
      <point x="183" y="316"/>
      <point x="225" y="363"/>
      <point x="277" y="363" type="curve" smooth="yes"/>
      <point x="329" y="363"/>
      <point x="372" y="316"/>
      <point x="372" y="258" type="curve" smooth="yes"/>
      <point x="372" y="200"/>
      <point x="330" y="155"/>
    </contour>
  </outline>
</glyph>
<glyph name="e" format="2">
  <advance width="559"/>
  <unicode hex="0065"/>
  <outline>
    <contour>
      <point x="278" y="363" type="curve" smooth="yes"/>
      <point x="302" y="363"/>
      <point x="321" y="355"/>
      <point x="336" y="342" type="curve"/>
      <point x="220" y="342" type="line"/>
      <point x="236" y="355"/>
      <point x="256" y="363"/>
    </contour>
    <contour>
      <point x="285" y="154" type="line" smooth="yes"/>
      <point x="254" y="154"/>
      <point x="231" y="165"/>
      <point x="214" y="182" type="curve"/>
      <point x="532" y="182" type="line"/>
      <point x="532" y="263" type="line" smooth="yes"/>
      <point x="532" y="404"/>
      <point x="421" y="523"/>
      <point x="278" y="523" type="curve" smooth="yes"/>
      <point x="132" y="523"/>
      <point x="23" y="400"/>
      <point x="23" y="257" type="curve" smooth="yes"/>
      <point x="23" y="111"/>
      <point x="135" y="-5"/>
      <point x="293" y="-5" type="curve" smooth="yes"/>
      <point x="396" y="-5"/>
      <point x="490" y="45"/>
      <point x="522" y="154" type="curve"/>
    </contour>
  </outline>
</glyph>
<glyph name="f" format="2">
  <advance width="299"/>
  <unicode hex="0066"/>
  <outline>
    <contour>
      <point x="239" y="573" type="curve" smooth="yes"/>
      <point x="272" y="573" type="line"/>
      <point x="272" y="733" type="line"/>
      <point x="239" y="733" type="line" smooth="yes"/>
      <point x="142" y="733"/>
      <point x="63" y="654"/>
      <point x="63" y="557" type="curve" smooth="yes"/>
      <point x="63" y="518" type="line"/>
      <point x="28" y="518" type="line"/>
      <point x="28" y="358" type="line"/>
      <point x="63" y="358" type="line"/>
      <point x="63" y="0" type="line"/>
      <point x="223" y="0" type="line"/>
      <point x="223" y="358" type="line"/>
      <point x="258" y="358" type="line"/>
      <point x="258" y="518" type="line"/>
      <point x="223" y="518" type="line"/>
      <point x="223" y="557" type="line" smooth="yes"/>
      <point x="223" y="566"/>
      <point x="230" y="573"/>
    </contour>
  </outline>
  <guideline angle="0" x="0" y="517"/>
</glyph>
<glyph name="g" format="2">
  <advance width="573"/>
  <unicode hex="0067"/>
  <outline>
    <contour>
      <point x="376" y="518" type="line"/>
      <point x="376" y="505" type="line"/>
      <point x="346" y="517"/>
      <point x="314" y="523"/>
      <point x="282" y="523" type="curve" smooth="yes"/>
      <point x="139" y="523"/>
      <point x="28" y="403"/>
      <point x="28" y="260" type="curve" smooth="yes"/>
      <point x="28" y="119"/>
      <point x="137" y="-5"/>
      <point x="282" y="-5" type="curve" smooth="yes"/>
      <point x="313" y="-5"/>
      <point x="342" y="1"/>
      <point x="371" y="12" type="curve"/>
      <point x="358" y="-40"/>
      <point x="321" y="-65"/>
      <point x="268" y="-65" type="curve" smooth="yes"/>
      <point x="227" y="-65"/>
      <point x="186" y="-50"/>
      <point x="173" y="-41" type="curve"/>
      <point x="78" y="-169" type="line"/>
      <point x="121" y="-201"/>
      <point x="197" y="-225"/>
      <point x="269" y="-225" type="curve" smooth="yes"/>
      <point x="432" y="-225"/>
      <point x="536" y="-104"/>
      <point x="536" y="57" type="curve" smooth="yes"/>
      <point x="536" y="518" type="line"/>
    </contour>
    <contour>
      <point x="282" y="155" type="curve" smooth="yes"/>
      <point x="230" y="155"/>
      <point x="188" y="202"/>
      <point x="188" y="260" type="curve" smooth="yes"/>
      <point x="188" y="318"/>
      <point x="229" y="363"/>
      <point x="282" y="363" type="curve" smooth="yes"/>
      <point x="338" y="363"/>
      <point x="376" y="313"/>
      <point x="376" y="260" type="curve"/>
      <point x="376" y="202"/>
      <point x="334" y="155"/>
    </contour>
  </outline>
  <guideline angle="0" x="0" y="540"/>
</glyph>
<glyph name="h" format="2">
  <advance width="601"/>
  <unicode hex="0068"/>
  <outline>
    <contour>
      <point x="321" y="523" type="curve" smooth="yes"/>
      <point x="281" y="523"/>
      <point x="240" y="514"/>
      <point x="203" y="497" type="curve"/>
      <point x="203" y="683" type="line"/>
      <point x="43" y="683" type="line"/>
      <point x="43" y="0" type="line"/>
      <point x="203" y="0" type="line"/>
      <point x="203" y="203" type="line" smooth="yes"/>
      <point x="203" y="278"/>
      <point x="227" y="363"/>
      <point x="310" y="363" type="curve" smooth="yes"/>
      <point x="342" y="363"/>
      <point x="404" y="350"/>
      <point x="404" y="289" type="curve" smooth="yes"/>
      <point x="404" y="0" type="line"/>
      <point x="564" y="0" type="line"/>
      <point x="564" y="289" type="line" smooth="yes"/>
      <point x="564" y="424"/>
      <point x="453" y="523"/>
    </contour>
  </outline>
</glyph>
<glyph name="i" format="2">
  <advance width="245"/>
  <unicode hex="0069"/>
  <outline>
    <contour>
      <point x="43" y="683" type="line"/>
      <point x="43" y="584" type="line"/>
      <point x="203" y="584" type="line"/>
      <point x="203" y="683" type="line"/>
    </contour>
    <contour>
      <point x="43" y="0" type="line"/>
      <point x="203" y="0" type="line"/>
      <point x="203" y="518" type="line"/>
      <point x="43" y="518" type="line"/>
    </contour>
  </outline>
  <guideline angle="0" x="0" y="683"/>
</glyph>
<glyph name="j" format="2">
  <advance width="264"/>
  <unicode hex="006A"/>
  <outline>
    <contour>
      <point x="62" y="-41" type="line" smooth="yes"/>
      <point x="62" y="-49"/>
      <point x="56" y="-55"/>
      <point x="48" y="-55" type="curve" smooth="yes"/>
      <point x="28" y="-55" type="line"/>
      <point x="28" y="-215" type="line"/>
      <point x="48" y="-215" type="line" smooth="yes"/>
      <point x="144" y="-215"/>
      <point x="222" y="-137"/>
      <point x="222" y="-41" type="curve" smooth="yes"/>
      <point x="222" y="518" type="line"/>
      <point x="62" y="518" type="line"/>
    </contour>
    <contour>
      <point x="62" y="683" type="line"/>
      <point x="62" y="584" type="line"/>
      <point x="222" y="584" type="line"/>
      <point x="222" y="683" type="line"/>
    </contour>
  </outline>
  <guideline angle="0" x="0" y="683"/>
</glyph>
<glyph name="k" format="2">
  <advance width="573"/>
  <unicode hex="006B"/>
  <outline>
    <contour>
      <point x="531" y="0" type="line"/>
      <point x="347" y="313" type="line"/>
      <point x="546" y="518" type="line"/>
      <point x="325" y="518" type="line"/>
      <point x="325" y="520" type="line"/>
      <point x="203" y="394" type="line"/>
      <point x="203" y="683" type="line"/>
      <point x="43" y="683" type="line"/>
      <point x="43" y="0" type="line"/>
      <point x="203" y="0" type="line"/>
      <point x="203" y="164" type="line"/>
      <point x="232" y="194" type="line"/>
      <point x="345" y="0" type="line"/>
    </contour>
  </outline>
</glyph>
<glyph name="l" format="2">
  <advance width="245"/>
  <unicode hex="006C"/>
  <outline>
    <contour>
      <point x="203" y="0" type="line"/>
      <point x="43" y="0" type="line"/>
      <point x="43" y="683" type="line"/>
      <point x="203" y="683" type="line"/>
    </contour>
  </outline>
</glyph>
<glyph name="m" format="2">
  <advance width="885"/>
  <unicode hex="006D"/>
  <outline>
    <contour>
      <point x="620" y="523" type="curve" smooth="yes"/>
      <point x="559" y="523"/>
      <point x="499" y="500"/>
      <point x="453" y="457" type="curve"/>
      <point x="449" y="461" type="line" smooth="yes"/>
      <point x="409" y="501"/>
      <point x="355" y="523"/>
      <point x="298" y="523" type="curve" smooth="yes"/>
      <point x="265" y="523"/>
      <point x="230" y="516"/>
      <point x="198" y="502" type="curve"/>
      <point x="198" y="518" type="line"/>
      <point x="38" y="518" type="line"/>
      <point x="38" y="0" type="line"/>
      <point x="198" y="0" type="line"/>
      <point x="198" y="196" type="line"/>
      <point x="198" y="272"/>
      <point x="216" y="363"/>
      <point x="301" y="363" type="curve" smooth="yes"/>
      <point x="321" y="363"/>
      <point x="361" y="344"/>
      <point x="361" y="284" type="curve" smooth="yes"/>
      <point x="361" y="0" type="line"/>
      <point x="521" y="0" type="line"/>
      <point x="521" y="197" type="line"/>
      <point x="521" y="273"/>
      <point x="539" y="363"/>
      <point x="624" y="363" type="curve" smooth="yes"/>
      <point x="643" y="363"/>
      <point x="683" y="344"/>
      <point x="683" y="284" type="curve" smooth="yes"/>
      <point x="683" y="0" type="line"/>
      <point x="843" y="0" type="line"/>
      <point x="843" y="284" type="line" smooth="yes"/>
      <point x="843" y="413"/>
      <point x="752" y="523"/>
    </contour>
  </outline>
</glyph>
<glyph name="n" format="2">
  <advance width="606"/>
  <unicode hex="006E"/>
  <outline>
    <contour>
      <point x="321" y="523" type="curve" smooth="yes"/>
      <point x="281" y="523"/>
      <point x="240" y="514"/>
      <point x="203" y="497" type="curve"/>
      <point x="203" y="518" type="line"/>
      <point x="43" y="518" type="line"/>
      <point x="43" y="0" type="line"/>
      <point x="203" y="0" type="line"/>
      <point x="203" y="203" type="line" smooth="yes"/>
      <point x="203" y="278"/>
      <point x="227" y="363"/>
      <point x="310" y="363" type="curve" smooth="yes"/>
      <point x="342" y="363"/>
      <point x="404" y="350"/>
      <point x="404" y="289" type="curve" smooth="yes"/>
      <point x="404" y="0" type="line"/>
      <point x="564" y="0" type="line"/>
      <point x="564" y="289" type="line" smooth="yes"/>
      <point x="564" y="424"/>
      <point x="453" y="523"/>
    </contour>
  </outline>
</glyph>
<glyph name="o" format="2">
  <advance width="553"/>
  <unicode hex="006F"/>
  <outline>
    <contour>
      <point x="277" y="-5" type="curve" smooth="yes"/>
      <point x="134" y="-5"/>
      <point x="23" y="115"/>
      <point x="23" y="258" type="curve" smooth="yes"/>
      <point x="23" y="400"/>
      <point x="133" y="523"/>
      <point x="277" y="523" type="curve" smooth="yes"/>
      <point x="420" y="523"/>
      <point x="531" y="400"/>
      <point x="531" y="258" type="curve" smooth="yes"/>
      <point x="531" y="116"/>
      <point x="421" y="-5"/>
    </contour>
    <contour>
      <point x="277" y="363" type="curve" smooth="yes"/>
      <point x="225" y="363"/>
      <point x="183" y="316"/>
      <point x="183" y="258" type="curve" smooth="yes"/>
      <point x="183" y="200"/>
      <point x="224" y="155"/>
      <point x="277" y="155" type="curve" smooth="yes"/>
      <point x="330" y="155"/>
      <point x="371" y="200"/>
      <point x="371" y="258" type="curve" smooth="yes"/>
      <point x="371" y="316"/>
      <point x="329" y="363"/>
    </contour>
  </outline>
</glyph>
<glyph name="p" format="2">
  <advance width="573"/>
  <unicode hex="0070"/>
  <outline>
    <contour>
      <point x="297" y="524" type="curve" smooth="yes"/>
      <point x="264" y="524"/>
      <point x="233" y="518"/>
      <point x="203" y="506" type="curve"/>
      <point x="203" y="519" type="line"/>
      <point x="43" y="519" type="line"/>
      <point x="43" y="-164" type="line"/>
      <point x="203" y="-164" type="line"/>
      <point x="203" y="15" type="line"/>
      <point x="233" y="2"/>
      <point x="264" y="-4"/>
      <point x="297" y="-4" type="curve" smooth="yes"/>
      <point x="440" y="-4"/>
      <point x="551" y="119"/>
      <point x="551" y="261" type="curve" smooth="yes"/>
      <point x="551" y="404"/>
      <point x="440" y="524"/>
    </contour>
    <contour>
      <point x="297" y="156" type="curve" smooth="yes"/>
      <point x="245" y="156"/>
      <point x="203" y="203"/>
      <point x="203" y="261" type="curve" smooth="yes"/>
      <point x="203" y="319"/>
      <point x="244" y="364"/>
      <point x="297" y="364" type="curve" smooth="yes"/>
      <point x="350" y="364"/>
      <point x="391" y="319"/>
      <point x="391" y="261" type="curve" smooth="yes"/>
      <point x="391" y="203"/>
      <point x="349" y="156"/>
    </contour>
  </outline>
</glyph>
<glyph name="q" format="2">
  <advance width="573"/>
  <unicode hex="0071"/>
  <outline>
    <contour>
      <point x="277" y="524" type="curve" smooth="yes"/>
      <point x="309" y="524"/>
      <point x="341" y="518"/>
      <point x="371" y="506" type="curve"/>
      <point x="371" y="519" type="line"/>
      <point x="531" y="519" type="line"/>
      <point x="531" y="-164" type="line"/>
      <point x="371" y="-164" type="line"/>
      <point x="371" y="15" type="line"/>
      <point x="341" y="2"/>
      <point x="309" y="-4"/>
      <point x="277" y="-4" type="curve" smooth="yes"/>
      <point x="133" y="-4"/>
      <point x="23" y="119"/>
      <point x="23" y="261" type="curve" smooth="yes"/>
      <point x="23" y="404"/>
      <point x="134" y="524"/>
    </contour>
    <contour>
      <point x="277" y="156" type="curve" smooth="yes"/>
      <point x="329" y="156"/>
      <point x="371" y="203"/>
      <point x="371" y="261" type="curve" smooth="yes"/>
      <point x="371" y="319"/>
      <point x="330" y="364"/>
      <point x="277" y="364" type="curve" smooth="yes"/>
      <point x="224" y="364"/>
      <point x="183" y="319"/>
      <point x="183" y="261" type="curve" smooth="yes"/>
      <point x="183" y="203"/>
      <point x="225" y="156"/>
    </contour>
  </outline>
</glyph>
<glyph name="r" format="2">
  <advance width="358"/>
  <unicode hex="0072"/>
  <outline>
    <contour>
      <point x="203" y="493" type="curve"/>
      <point x="203" y="518" type="line"/>
      <point x="43" y="518" type="line"/>
      <point x="43" y="0" type="line"/>
      <point x="203" y="0" type="line"/>
      <point x="203" y="196" type="line" smooth="yes"/>
      <point x="203" y="284"/>
      <point x="231" y="360"/>
      <point x="331" y="360" type="curve"/>
      <point x="331" y="520" type="line"/>
      <point x="287" y="520"/>
      <point x="243" y="511"/>
    </contour>
  </outline>
  <guideline angle="0" x="0" y="518"/>
</glyph>
<glyph name="s" format="2">
  <advance width="504"/>
  <unicode hex="0073"/>
  <outline>
    <contour>
      <point x="258" y="-5" type="curve" smooth="yes"/>
      <point x="184" y="-5"/>
      <point x="115" y="22"/>
      <point x="73" y="69" type="curve" smooth="yes"/>
      <point x="39" y="107"/>
      <point x="23" y="156"/>
      <point x="28" y="207" type="curve"/>
      <point x="187" y="191" type="line"/>
      <point x="187" y="184"/>
      <point x="188" y="181"/>
      <point x="192" y="176" type="curve" smooth="yes"/>
      <point x="200" y="167"/>
      <point x="224" y="155"/>
      <point x="260" y="155" type="curve" smooth="yes"/>
      <point x="282" y="155"/>
      <point x="301" y="159"/>
      <point x="311" y="166" type="curve"/>
      <point x="312" y="167" type="line"/>
      <point x="310" y="168"/>
      <point x="306" y="169"/>
      <point x="302" y="171" type="curve" smooth="yes"/>
      <point x="287" y="175"/>
      <point x="270" y="178"/>
      <point x="251" y="182" type="curve" smooth="yes"/>
      <point x="150" y="201"/>
      <point x="42" y="236"/>
      <point x="42" y="354" type="curve" smooth="yes"/>
      <point x="42" y="470"/>
      <point x="145" y="523"/>
      <point x="246" y="523" type="curve" smooth="yes"/>
      <point x="355" y="523"/>
      <point x="464" y="461"/>
      <point x="464" y="341" type="curve"/>
      <point x="304" y="341" type="line"/>
      <point x="304" y="359"/>
      <point x="258" y="363"/>
      <point x="242" y="363" type="curve" smooth="yes"/>
      <point x="229" y="363"/>
      <point x="216" y="360"/>
      <point x="209" y="357" type="curve"/>
      <point x="212" y="356"/>
      <point x="216" y="354"/>
      <point x="222" y="352" type="curve" smooth="yes"/>
      <point x="239" y="347"/>
      <point x="259" y="343"/>
      <point x="281" y="339" type="curve" smooth="yes"/>
      <point x="377" y="321"/>
      <point x="476" y="291"/>
      <point x="476" y="175" type="curve" smooth="yes"/>
      <point x="476" y="55"/>
      <point x="369" y="-5"/>
    </contour>
    <contour>
      <point x="316" y="174" type="curve"/>
      <point x="316" y="174"/>
      <point x="316" y="174"/>
      <point x="316" y="174" type="curve"/>
      <point x="316" y="174"/>
      <point x="316" y="174"/>
    </contour>
  </outline>
</glyph>
<glyph name="t" format="2">
  <advance width="290"/>
  <unicode hex="0074"/>
  <outline>
    <contour>
      <point x="239" y="160" type="line" smooth="yes"/>
      <point x="229" y="160"/>
      <point x="221" y="168"/>
      <point x="221" y="178" type="curve" smooth="yes"/>
      <point x="221" y="388" type="line"/>
      <point x="258" y="388" type="line"/>
      <point x="258" y="548" type="line"/>
      <point x="221" y="548" type="line"/>
      <point x="221" y="714" type="line"/>
      <point x="61" y="714" type="line"/>
      <point x="61" y="548" type="line"/>
      <point x="28" y="548" type="line"/>
      <point x="28" y="388" type="line"/>
      <point x="61" y="388" type="line"/>
      <point x="61" y="178" type="line" smooth="yes"/>
      <point x="61" y="80"/>
      <point x="141" y="0"/>
      <point x="239" y="0" type="curve" smooth="yes"/>
      <point x="263" y="0" type="line"/>
      <point x="263" y="160" type="line"/>
    </contour>
  </outline>
</glyph>
<glyph name="u" format="2">
  <advance width="591"/>
  <unicode hex="0075"/>
  <outline>
    <contour>
      <point x="389" y="519" type="line"/>
      <point x="389" y="315" type="line" smooth="yes"/>
      <point x="389" y="240"/>
      <point x="365" y="155"/>
      <point x="282" y="155" type="curve" smooth="yes"/>
      <point x="250" y="155"/>
      <point x="188" y="168"/>
      <point x="188" y="229" type="curve" smooth="yes"/>
      <point x="188" y="519" type="line"/>
      <point x="28" y="519" type="line"/>
      <point x="28" y="229" type="line" smooth="yes"/>
      <point x="28" y="93"/>
      <point x="139" y="-5"/>
      <point x="272" y="-5" type="curve" smooth="yes"/>
      <point x="311" y="-5"/>
      <point x="352" y="4"/>
      <point x="389" y="21" type="curve"/>
      <point x="389" y="1" type="line"/>
      <point x="549" y="1" type="line"/>
      <point x="549" y="519" type="line"/>
    </contour>
  </outline>
  <guideline angle="0" x="0" y="1387"/>
  <guideline angle="90" x="-1120" y="0"/>
  <guideline angle="90" x="-1785" y="0"/>
  <guideline angle="90" x="-1835" y="0"/>
  <guideline angle="90" x="-1901" y="0"/>
</glyph>
<glyph name="v" format="2">
  <advance width="583"/>
  <unicode hex="0076"/>
  <outline>
    <contour>
      <point x="400" y="518" type="line"/>
      <point x="292" y="235" type="line"/>
      <point x="184" y="518" type="line"/>
      <point x="13" y="518" type="line"/>
      <point x="210" y="0" type="line"/>
      <point x="374" y="0" type="line"/>
      <point x="571" y="518" type="line"/>
    </contour>
  </outline>
</glyph>
<glyph name="w" format="2">
  <advance width="847"/>
  <unicode hex="0077"/>
  <outline>
    <contour>
      <point x="667" y="518" type="line"/>
      <point x="588" y="271" type="line"/>
      <point x="508" y="518" type="line"/>
      <point x="340" y="518" type="line"/>
      <point x="260" y="271" type="line"/>
      <point x="181" y="518" type="line"/>
      <point x="13" y="518" type="line"/>
      <point x="180" y="0" type="line"/>
      <point x="341" y="0" type="line"/>
      <point x="424" y="257" type="line"/>
      <point x="507" y="0" type="line"/>
      <point x="668" y="0" type="line"/>
      <point x="835" y="518" type="line"/>
    </contour>
  </outline>
</glyph>
<glyph name="x" format="2">
  <advance width="631"/>
  <unicode hex="0078"/>
  <outline>
    <contour>
      <point x="604" y="518" type="line"/>
      <point x="403" y="518" type="line"/>
      <point x="316" y="402" type="line"/>
      <point x="229" y="518" type="line"/>
      <point x="28" y="518" type="line"/>
      <point x="216" y="269" type="line"/>
      <point x="13" y="0" type="line"/>
      <point x="213" y="0" type="line"/>
      <point x="316" y="136" type="line"/>
      <point x="419" y="0" type="line"/>
      <point x="619" y="0" type="line"/>
      <point x="416" y="269" type="line"/>
    </contour>
  </outline>
  <guideline angle="0" x="0" y="519"/>
</glyph>
<glyph name="y" format="2">
  <advance width="575"/>
  <unicode hex="0079"/>
  <outline>
    <contour>
      <point x="392" y="518" type="line"/>
      <point x="288" y="245" type="line"/>
      <point x="184" y="518" type="line"/>
      <point x="13" y="518" type="line"/>
      <point x="202" y="20" type="line"/>
      <point x="186" y="-23" type="line" smooth="yes"/>
      <point x="184" y="-27"/>
      <point x="180" y="-31"/>
      <point x="175" y="-31" type="curve" smooth="yes"/>
      <point x="128" y="-31" type="line"/>
      <point x="128" y="-191" type="line"/>
      <point x="175" y="-191" type="line" smooth="yes"/>
      <point x="246" y="-191"/>
      <point x="310" y="-146"/>
      <point x="335" y="-80" type="curve" smooth="yes"/>
      <point x="563" y="518" type="line"/>
    </contour>
  </outline>
  <guideline angle="0" x="0" y="518"/>
</glyph>
<glyph name="z" format="2">
  <advance width="403"/>
  <unicode hex="007A"/>
  <outline>
    <contour>
      <point x="376" y="341" type="line"/>
      <point x="376" y="518" type="line"/>
      <point x="39" y="518" type="line"/>
      <point x="39" y="358" type="line"/>
      <point x="174" y="358" type="line"/>
      <point x="28" y="199" type="line"/>
      <point x="28" y="0" type="line"/>
      <point x="376" y="0" type="line"/>
      <point x="376" y="160" type="line"/>
      <point x="209" y="160" type="line"/>
    </contour>
  </outline>
  <guideline angle="0" x="0" y="518"/>
</glyph>
<glyph name="braceleft" format="2">
  <advance width="280"/>
  <unicode hex="007B"/>
  <outline>
    <contour>
      <point x="72" y="353" type="curve" smooth="yes"/>
      <point x="79" y="366"/>
      <point x="79" y="398"/>
      <point x="79" y="421" type="curve"/>
      <point x="79" y="487" type="line"/>
      <point x="79" y="594"/>
      <point x="164" y="681"/>
      <point x="268" y="681" type="curve"/>
      <point x="268" y="531" type="line"/>
      <point x="247" y="531"/>
      <point x="229" y="511"/>
      <point x="229" y="487" type="curve"/>
      <point x="229" y="421" type="line"/>
      <point x="229" y="364"/>
      <point x="225" y="307"/>
      <point x="191" y="259" type="curve"/>
      <point x="225" y="212"/>
      <point x="229" y="155"/>
      <point x="229" y="98" type="curve"/>
      <point x="229" y="32" type="line"/>
      <point x="229" y="8"/>
      <point x="247" y="-12"/>
      <point x="268" y="-12" type="curve"/>
      <point x="268" y="-162" type="line"/>
      <point x="164" y="-162"/>
      <point x="79" y="-75"/>
      <point x="79" y="33" type="curve"/>
      <point x="79" y="98" type="line"/>
      <point x="79" y="121"/>
      <point x="79" y="153"/>
      <point x="72" y="166" type="curve" smooth="yes"/>
      <point x="63" y="184"/>
      <point x="37" y="184"/>
      <point x="23" y="184" type="curve"/>
      <point x="23" y="334" type="line"/>
      <point x="37" y="334"/>
      <point x="63" y="335"/>
    </contour>
  </outline>
</glyph>
<glyph name="bar" format="2">
  <advance width="245"/>
  <unicode hex="007C"/>
  <outline>
    <contour>
      <point x="203" y="-164" type="line"/>
      <point x="43" y="-164" type="line"/>
      <point x="43" y="684" type="line"/>
      <point x="203" y="684" type="line"/>
    </contour>
  </outline>
</glyph>
<glyph name="braceright" format="2">
  <advance width="280"/>
  <unicode hex="007D"/>
  <outline>
    <contour>
      <point x="209" y="355" type="curve" smooth="yes"/>
      <point x="201" y="368"/>
      <point x="201" y="400"/>
      <point x="201" y="423" type="curve"/>
      <point x="201" y="489" type="line"/>
      <point x="201" y="596"/>
      <point x="117" y="683"/>
      <point x="13" y="683" type="curve"/>
      <point x="13" y="533" type="line"/>
      <point x="34" y="533"/>
      <point x="51" y="513"/>
      <point x="51" y="489" type="curve"/>
      <point x="51" y="423" type="line"/>
      <point x="51" y="366"/>
      <point x="56" y="309"/>
      <point x="90" y="261" type="curve"/>
      <point x="56" y="214"/>
      <point x="51" y="157"/>
      <point x="51" y="100" type="curve"/>
      <point x="51" y="34" type="line"/>
      <point x="51" y="10"/>
      <point x="34" y="-10"/>
      <point x="13" y="-10" type="curve"/>
      <point x="13" y="-160" type="line"/>
      <point x="117" y="-160"/>
      <point x="201" y="-73"/>
      <point x="201" y="35" type="curve"/>
      <point x="201" y="100" type="line"/>
      <point x="201" y="123"/>
      <point x="201" y="155"/>
      <point x="209" y="168" type="curve" smooth="yes"/>
      <point x="218" y="186"/>
      <point x="244" y="186"/>
      <point x="258" y="186" type="curve"/>
      <point x="258" y="336" type="line"/>
      <point x="244" y="336"/>
      <point x="218" y="337"/>
    </contour>
  </outline>
</glyph>
<glyph name="asciitilde" format="2">
  <advance width="311"/>
  <unicode hex="007E"/>
  <outline>
    <contour>
      <point x="311" y="344" type="line"/>
      <point x="286" y="332"/>
      <point x="259" y="322"/>
      <point x="247" y="322" type="curve" smooth="yes"/>
      <point x="234" y="322"/>
      <point x="205" y="334"/>
      <point x="186" y="342" type="curve" smooth="yes"/>
      <point x="150" y="357"/>
      <point x="109" y="374"/>
      <point x="66" y="374" type="curve"/>
      <point x="44" y="374"/>
      <point x="21" y="370"/>
      <point x="0" y="363" type="curve"/>
      <point x="0" y="192" type="line"/>
      <point x="24" y="204"/>
      <point x="52" y="214"/>
      <point x="64" y="214" type="curve" smooth="yes"/>
      <point x="77" y="214"/>
      <point x="106" y="202"/>
      <point x="125" y="194" type="curve" smooth="yes"/>
      <point x="162" y="179"/>
      <point x="203" y="162"/>
      <point x="246" y="162" type="curve" smooth="yes"/>
      <point x="267" y="162"/>
      <point x="289" y="166"/>
      <point x="311" y="172" type="curve"/>
    </contour>
  </outline>
</glyph>
<glyph name="dieresis" format="2">
  <advance width="300"/>
  <unicode hex="00A8"/>
  <outline>
    <contour>
      <point x="122.5" y="623.427" type="line"/>
      <point x="12.5" y="623.427" type="line"/>
      <point x="12.5" y="752" type="line"/>
      <point x="122.5" y="752" type="line"/>
    </contour>
    <contour>
      <point x="287.5" y="623.427" type="line"/>
      <point x="177.5" y="623.427" type="line"/>
      <point x="177.5" y="752" type="line"/>
      <point x="287.5" y="752" type="line"/>
    </contour>
  </outline>
</glyph>
<glyph name="copyright" format="2">
  <advance width="405"/>
  <unicode hex="00A9"/>
  <outline>
    <contour>
      <point x="203" y="77" type="curve" smooth="yes"/>
      <point x="104" y="77"/>
      <point x="23" y="158"/>
      <point x="23" y="257" type="curve" smooth="yes"/>
      <point x="23" y="356"/>
      <point x="104" y="437"/>
      <point x="203" y="437" type="curve" smooth="yes"/>
      <point x="302" y="437"/>
      <point x="383" y="356"/>
      <point x="383" y="257" type="curve" smooth="yes"/>
      <point x="383" y="158"/>
      <point x="302" y="77"/>
    </contour>
    <contour>
      <point x="203" y="367" type="curve" smooth="yes"/>
      <point x="142" y="367"/>
      <point x="93" y="318"/>
      <point x="93" y="257" type="curve" smooth="yes"/>
      <point x="93" y="197"/>
      <point x="142" y="147"/>
      <point x="203" y="147" type="curve" smooth="yes"/>
      <point x="264" y="147"/>
      <point x="313" y="197"/>
      <point x="313" y="257" type="curve" smooth="yes"/>
      <point x="313" y="318"/>
      <point x="264" y="367"/>
    </contour>
    <contour>
      <point x="203" y="162" type="curve" smooth="yes"/>
      <point x="150" y="162"/>
      <point x="108" y="205"/>
      <point x="108" y="257" type="curve" smooth="yes"/>
      <point x="108" y="310"/>
      <point x="150" y="352"/>
      <point x="203" y="352" type="curve" smooth="yes"/>
      <point x="240" y="352"/>
      <point x="273" y="331"/>
      <point x="289" y="298" type="curve"/>
      <point x="226" y="268" type="line"/>
      <point x="222" y="277"/>
      <point x="213" y="282"/>
      <point x="203" y="282" type="curve" smooth="yes"/>
      <point x="189" y="282"/>
      <point x="178" y="271"/>
      <point x="178" y="257" type="curve" smooth="yes"/>
      <point x="178" y="243"/>
      <point x="189" y="232"/>
      <point x="203" y="232" type="curve" smooth="yes"/>
      <point x="213" y="232"/>
      <point x="221" y="237"/>
      <point x="226" y="246" type="curve"/>
      <point x="288" y="215" type="line"/>
      <point x="273" y="183"/>
      <point x="239" y="162"/>
    </contour>
  </outline>
</glyph>
<glyph name="macron" format="2">
  <advance width="385"/>
  <unicode hex="00AF"/>
  <outline>
    <contour>
      <point x="373" y="423" type="line"/>
      <point x="13" y="423" type="line"/>
      <point x="13" y="583" type="line"/>
      <point x="373" y="583" type="line"/>
    </contour>
  </outline>
  <guideline angle="0" x="0" y="719"/>
</glyph>
<glyph name="alef" format="2">
  <advance width="628"/>
  <unicode hex="05D0"/>
  <outline>
    <contour>
      <point x="410" y="497" type="curve"/>
      <point x="410" y="490"/>
      <point x="410" y="484"/>
      <point x="410" y="477" type="curve" smooth="yes"/>
      <point x="410" y="413"/>
      <point x="409" y="353"/>
      <point x="390" y="296" type="curve"/>
      <point x="227" y="519" type="line"/>
      <point x="29" y="519" type="line"/>
      <point x="118" y="398" type="line"/>
      <point x="42" y="280"/>
      <point x="23" y="137"/>
      <point x="23" y="0" type="curve"/>
      <point x="183" y="0" type="line"/>
      <point x="183" y="121"/>
      <point x="203" y="204"/>
      <point x="223" y="253" type="curve"/>
      <point x="408" y="0" type="line"/>
      <point x="606" y="0" type="line"/>
      <point x="497" y="150" type="line"/>
      <point x="569" y="266"/>
      <point x="570" y="377"/>
      <point x="570" y="508" type="curve" smooth="yes"/>
      <point x="570" y="512"/>
      <point x="570" y="515"/>
      <point x="570" y="519" type="curve"/>
      <point x="410" y="519" type="line"/>
      <point x="410" y="515"/>
      <point x="410" y="511"/>
      <point x="410" y="507" type="curve" smooth="yes"/>
      <point x="410" y="504"/>
      <point x="410" y="500"/>
    </contour>
  </outline>
</glyph>
<glyph name="bet" format="2">
  <advance width="500"/>
  <unicode hex="05D1"/>
  <outline>
    <contour>
      <point x="430" y="160" type="line"/>
      <point x="430" y="278" type="line" smooth="yes"/>
      <point x="430" y="410"/>
      <point x="323" y="518"/>
      <point x="190" y="518" type="curve" smooth="yes"/>
      <point x="23" y="518" type="line"/>
      <point x="23" y="358" type="line"/>
      <point x="190" y="358" type="line" smooth="yes"/>
      <point x="234" y="358"/>
      <point x="270" y="322"/>
      <point x="270" y="278" type="curve" smooth="yes"/>
      <point x="270" y="160" type="line"/>
      <point x="23" y="160" type="line"/>
      <point x="23" y="0" type="line"/>
      <point x="478" y="0" type="line"/>
      <point x="478" y="160" type="line"/>
    </contour>
  </outline>
</glyph>
<glyph name="gimel" format="2">
  <advance width="399"/>
  <unicode hex="05D2"/>
  <outline>
    <contour>
      <point x="23" y="160" type="curve"/>
      <point x="23" y="0" type="line"/>
      <point x="84" y="0"/>
      <point x="145" y="21"/>
      <point x="196" y="58" type="curve"/>
      <point x="208" y="0" type="line"/>
      <point x="372" y="0" type="line"/>
      <point x="263" y="518" type="line"/>
      <point x="68" y="518" type="line"/>
      <point x="68" y="358" type="line"/>
      <point x="133" y="358" type="line"/>
      <point x="152" y="271" type="line" smooth="yes"/>
      <point x="152" y="268"/>
      <point x="152" y="265"/>
      <point x="152" y="262" type="curve" smooth="yes"/>
      <point x="152" y="209"/>
      <point x="78" y="160"/>
    </contour>
  </outline>
</glyph>
<glyph name="he" format="2">
  <advance width="522"/>
  <unicode hex="05D4"/>
  <outline>
    <contour>
      <point x="245" y="518" type="curve" smooth="yes"/>
      <point x="28" y="518" type="line"/>
      <point x="28" y="358" type="line"/>
      <point x="245" y="358" type="line" smooth="yes"/>
      <point x="289" y="358"/>
      <point x="325" y="322"/>
      <point x="325" y="278" type="curve" smooth="yes"/>
      <point x="325" y="0" type="line"/>
      <point x="485" y="0" type="line"/>
      <point x="485" y="278" type="line" smooth="yes"/>
      <point x="485" y="410"/>
      <point x="378" y="518"/>
    </contour>
    <contour>
      <point x="28" y="0" type="line"/>
      <point x="188" y="0" type="line"/>
      <point x="188" y="259" type="line"/>
      <point x="28" y="259" type="line"/>
    </contour>
  </outline>
</glyph>
<glyph name="vav" format="2">
  <advance width="245"/>
  <unicode hex="05D5"/>
  <outline>
    <contour>
      <point x="203" y="0" type="line"/>
      <point x="43" y="0" type="line"/>
      <point x="43" y="518" type="line"/>
      <point x="203" y="518" type="line"/>
    </contour>
  </outline>
</glyph>
<glyph name="zayin" format="2">
  <advance width="360"/>
  <unicode hex="05D6"/>
  <outline>
    <contour>
      <point x="289" y="0" type="line"/>
      <point x="129" y="0" type="line"/>
      <point x="129" y="242" type="line" smooth="yes"/>
      <point x="129" y="328"/>
      <point x="69" y="358"/>
      <point x="13" y="358" type="curve"/>
      <point x="13" y="518" type="line"/>
      <point x="338" y="518" type="line"/>
      <point x="338" y="358" type="line"/>
      <point x="248" y="358" type="line"/>
      <point x="254" y="353"/>
      <point x="289" y="324"/>
      <point x="289" y="242" type="curve" smooth="yes"/>
    </contour>
  </outline>
  <guideline angle="0" x="0" y="518"/>
</glyph>
<glyph name="het" format="2">
  <advance width="563"/>
  <unicode hex="05D7"/>
  <outline>
    <contour>
      <point x="526" y="0" type="line"/>
      <point x="366" y="0" type="line"/>
      <point x="366" y="278" type="line" smooth="yes"/>
      <point x="366" y="322"/>
      <point x="330" y="358"/>
      <point x="286" y="358" type="curve" smooth="yes"/>
      <point x="203" y="358" type="line"/>
      <point x="203" y="0" type="line"/>
      <point x="43" y="0" type="line"/>
      <point x="43" y="518" type="line"/>
      <point x="286" y="518" type="line" smooth="yes"/>
      <point x="418" y="518"/>
      <point x="526" y="410"/>
      <point x="526" y="278" type="curve" smooth="yes"/>
    </contour>
  </outline>
</glyph>
<glyph name="tet" format="2">
  <advance width="583"/>
  <unicode hex="05D8"/>
  <outline>
    <contour>
      <point x="300" y="-5" type="curve" smooth="yes"/>
      <point x="157" y="-5"/>
      <point x="38" y="119"/>
      <point x="38" y="266" type="curve" smooth="yes"/>
      <point x="38" y="513" type="line"/>
      <point x="198" y="513" type="line"/>
      <point x="198" y="266" type="line" smooth="yes"/>
      <point x="198" y="208"/>
      <point x="246" y="155"/>
      <point x="301" y="155" type="curve" smooth="yes"/>
      <point x="352" y="155"/>
      <point x="396" y="201"/>
      <point x="396" y="254" type="curve" smooth="yes"/>
      <point x="396" y="298"/>
      <point x="366" y="353"/>
      <point x="298" y="353" type="curve"/>
      <point x="298" y="513" type="line"/>
      <point x="442" y="513"/>
      <point x="556" y="400"/>
      <point x="556" y="258" type="curve" smooth="yes"/>
      <point x="556" y="115"/>
      <point x="441" y="-5"/>
    </contour>
  </outline>
</glyph>
<glyph name="yod" format="2">
  <advance width="215"/>
  <unicode hex="05D9"/>
  <outline>
    <contour>
      <point x="188" y="271" type="line"/>
      <point x="28" y="271" type="line"/>
      <point x="28" y="518" type="line"/>
      <point x="188" y="518" type="line"/>
    </contour>
  </outline>
</glyph>
<glyph name="uni05DA" format="2">
  <advance width="453"/>
  <unicode hex="05DA"/>
  <outline>
    <contour>
      <point x="416" y="-165" type="line"/>
      <point x="256" y="-165" type="line"/>
      <point x="256" y="278" type="line" smooth="yes"/>
      <point x="256" y="322"/>
      <point x="220" y="358"/>
      <point x="176" y="358" type="curve" smooth="yes"/>
      <point x="13" y="358" type="line"/>
      <point x="13" y="518" type="line"/>
      <point x="176" y="518" type="line" smooth="yes"/>
      <point x="308" y="518"/>
      <point x="416" y="410"/>
      <point x="416" y="278" type="curve" smooth="yes"/>
    </contour>
  </outline>
</glyph>
<glyph name="kaf" format="2">
  <advance width="453"/>
  <unicode hex="05DB"/>
  <outline>
    <contour>
      <point x="182" y="0" type="curve" smooth="yes"/>
      <point x="13" y="0" type="line"/>
      <point x="13" y="160" type="line"/>
      <point x="182" y="160" type="line" smooth="yes"/>
      <point x="228" y="160"/>
      <point x="266" y="204"/>
      <point x="266" y="258" type="curve" smooth="yes"/>
      <point x="266" y="313"/>
      <point x="228" y="358"/>
      <point x="182" y="358" type="curve" smooth="yes"/>
      <point x="13" y="358" type="line"/>
      <point x="13" y="518" type="line"/>
      <point x="182" y="518" type="line" smooth="yes"/>
      <point x="322" y="518"/>
      <point x="426" y="395"/>
      <point x="426" y="258" type="curve" smooth="yes"/>
      <point x="426" y="121"/>
      <point x="323" y="0"/>
    </contour>
  </outline>
</glyph>
<glyph name="lamed" format="2">
  <advance width="525"/>
  <unicode hex="05DC"/>
  <outline>
    <contour>
      <point x="142" y="0" type="line"/>
      <point x="313" y="0" type="line"/>
      <point x="513" y="518" type="line"/>
      <point x="173" y="518" type="line"/>
      <point x="173" y="683" type="line"/>
      <point x="13" y="683" type="line"/>
      <point x="13" y="358" type="line"/>
      <point x="280" y="358" type="line"/>
    </contour>
  </outline>
</glyph>
<glyph name="uni05DD" format="2">
  <advance width="548"/>
  <unicode hex="05DD"/>
  <outline>
    <contour>
      <point x="511" y="0" type="line"/>
      <point x="43" y="0" type="line"/>
      <point x="43" y="518" type="line"/>
      <point x="271" y="518" type="line" smooth="yes"/>
      <point x="335" y="518"/>
      <point x="395" y="493"/>
      <point x="440" y="448" type="curve" smooth="yes"/>
      <point x="486" y="402"/>
      <point x="511" y="342"/>
      <point x="511" y="278" type="curve" smooth="yes"/>
    </contour>
    <contour>
      <point x="203" y="160" type="line"/>
      <point x="351" y="160" type="line"/>
      <point x="351" y="278" type="line" smooth="yes"/>
      <point x="351" y="322"/>
      <point x="315" y="358"/>
      <point x="271" y="358" type="curve" smooth="yes"/>
      <point x="203" y="358" type="line"/>
    </contour>
  </outline>
</glyph>
<glyph name="mem" format="2">
  <advance width="606"/>
  <unicode hex="05DE"/>
  <outline>
    <contour>
      <point x="317" y="518" type="curve" smooth="yes"/>
      <point x="278" y="518"/>
      <point x="235" y="508"/>
      <point x="203" y="488" type="curve"/>
      <point x="203" y="518" type="line"/>
      <point x="43" y="518" type="line"/>
      <point x="43" y="0" type="line"/>
      <point x="203" y="0" type="line"/>
      <point x="203" y="253" type="line" smooth="yes"/>
      <point x="203" y="310"/>
      <point x="258" y="358"/>
      <point x="316" y="358" type="curve" smooth="yes"/>
      <point x="378" y="358"/>
      <point x="409" y="303"/>
      <point x="409" y="259" type="curve" smooth="yes"/>
      <point x="409" y="206"/>
      <point x="365" y="160"/>
      <point x="311" y="160" type="curve"/>
      <point x="311" y="0" type="line"/>
      <point x="452" y="0"/>
      <point x="569" y="119"/>
      <point x="569" y="261" type="curve" smooth="yes"/>
      <point x="569" y="400"/>
      <point x="458" y="518"/>
    </contour>
  </outline>
</glyph>
<glyph name="uni05DF" format="2">
  <advance width="245"/>
  <unicode hex="05DF"/>
  <outline>
    <contour>
      <point x="203" y="-165" type="line"/>
      <point x="43" y="-165" type="line"/>
      <point x="43" y="518" type="line"/>
      <point x="203" y="518" type="line"/>
    </contour>
  </outline>
</glyph>
<glyph name="nun" format="2">
  <advance width="310"/>
  <unicode hex="05E0"/>
  <outline>
    <contour>
      <point x="82" y="0" type="curve" smooth="yes"/>
      <point x="13" y="0" type="line"/>
      <point x="13" y="160" type="line"/>
      <point x="82" y="160" type="line" smooth="yes"/>
      <point x="104" y="160"/>
      <point x="122" y="178"/>
      <point x="122" y="200" type="curve" smooth="yes"/>
      <point x="122" y="358" type="line"/>
      <point x="58" y="358" type="line"/>
      <point x="58" y="518" type="line"/>
      <point x="282" y="518" type="line"/>
      <point x="282" y="200" type="line" smooth="yes"/>
      <point x="282" y="90"/>
      <point x="192" y="0"/>
    </contour>
  </outline>
</glyph>
<glyph name="samekh" format="2">
  <advance width="575"/>
  <unicode hex="05E1"/>
  <outline>
    <contour>
      <point x="297" y="0" type="curve" smooth="yes"/>
      <point x="155" y="0"/>
      <point x="38" y="124"/>
      <point x="38" y="271" type="curve" smooth="yes"/>
      <point x="38" y="518" type="line"/>
      <point x="294" y="518" type="line" smooth="yes"/>
      <point x="438" y="518"/>
      <point x="548" y="403"/>
      <point x="548" y="263" type="curve" smooth="yes"/>
      <point x="548" y="122"/>
      <point x="437" y="0"/>
    </contour>
    <contour>
      <point x="198" y="358" type="line"/>
      <point x="198" y="271" type="line" smooth="yes"/>
      <point x="198" y="213"/>
      <point x="239" y="160"/>
      <point x="294" y="160" type="curve" smooth="yes"/>
      <point x="346" y="160"/>
      <point x="388" y="206"/>
      <point x="388" y="259" type="curve" smooth="yes"/>
      <point x="388" y="303"/>
      <point x="359" y="358"/>
      <point x="294" y="358" type="curve" smooth="yes"/>
    </contour>
  </outline>
</glyph>
<glyph name="ayin" format="2">
  <advance width="554"/>
  <unicode hex="05E2"/>
  <outline>
    <contour>
      <point x="372" y="518" type="line"/>
      <point x="372" y="432" type="line" smooth="yes"/>
      <point x="372" y="319"/>
      <point x="352" y="199"/>
      <point x="256" y="129" type="curve"/>
      <point x="176" y="518" type="line"/>
      <point x="13" y="518" type="line"/>
      <point x="105" y="67" type="line"/>
      <point x="80" y="62"/>
      <point x="53" y="58"/>
      <point x="24" y="56" type="curve"/>
      <point x="38" y="-104" type="line"/>
      <point x="358" y="-75"/>
      <point x="532" y="92"/>
      <point x="532" y="432" type="curve" smooth="yes"/>
      <point x="532" y="518" type="line"/>
    </contour>
  </outline>
</glyph>
<glyph name="uni05E3" format="2">
  <advance width="510"/>
  <unicode hex="05E3"/>
  <outline>
    <contour>
      <point x="473" y="-165" type="line"/>
      <point x="313" y="-165" type="line"/>
      <point x="313" y="278" type="line" smooth="yes"/>
      <point x="313" y="322"/>
      <point x="277" y="358"/>
      <point x="233" y="358" type="curve" smooth="yes"/>
      <point x="188" y="358" type="line"/>
      <point x="188" y="197" type="line"/>
      <point x="28" y="197" type="line"/>
      <point x="28" y="518" type="line"/>
      <point x="233" y="518" type="line" smooth="yes"/>
      <point x="365" y="518"/>
      <point x="473" y="410"/>
      <point x="473" y="278" type="curve" smooth="yes"/>
    </contour>
  </outline>
</glyph>
<glyph name="pe" format="2">
  <advance width="560"/>
  <unicode hex="05E4"/>
  <outline>
    <contour>
      <point x="273" y="518" type="curve" smooth="yes"/>
      <point x="125" y="518"/>
      <point x="23" y="403"/>
      <point x="23" y="251" type="curve" smooth="yes"/>
      <point x="23" y="244"/>
      <point x="23" y="235"/>
      <point x="24" y="227" type="curve"/>
      <point x="184" y="227" type="line"/>
      <point x="183" y="234"/>
      <point x="183" y="242"/>
      <point x="183" y="250" type="curve" smooth="yes"/>
      <point x="183" y="285"/>
      <point x="192" y="358"/>
      <point x="273" y="358" type="curve" smooth="yes"/>
      <point x="343" y="358"/>
      <point x="373" y="302"/>
      <point x="373" y="258" type="curve" smooth="yes"/>
      <point x="373" y="206"/>
      <point x="333" y="160"/>
      <point x="283" y="160" type="curve" smooth="yes"/>
      <point x="145" y="160" type="line"/>
      <point x="145" y="0" type="line"/>
      <point x="283" y="0" type="line" smooth="yes"/>
      <point x="424" y="0"/>
      <point x="533" y="122"/>
      <point x="533" y="262" type="curve" smooth="yes"/>
      <point x="533" y="404"/>
      <point x="421" y="518"/>
    </contour>
  </outline>
</glyph>
<glyph name="uni05E5" format="2">
  <advance width="614"/>
  <unicode hex="05E5"/>
  <outline>
    <contour>
      <point x="586" y="518" type="line"/>
      <point x="400" y="518" type="line"/>
      <point x="300" y="349" type="line"/>
      <point x="204" y="518" type="line"/>
      <point x="20" y="518" type="line"/>
      <point x="410" y="-165" type="line"/>
      <point x="594" y="-165" type="line"/>
      <point x="392" y="189" type="line"/>
    </contour>
  </outline>
</glyph>
<glyph name="tsadi" format="2">
  <advance width="587"/>
  <unicode hex="05E6"/>
  <outline>
    <contour>
      <point x="440" y="213" type="curve"/>
      <point x="490" y="276"/>
      <point x="551" y="380"/>
      <point x="565" y="518" type="curve"/>
      <point x="404" y="518" type="line"/>
      <point x="394" y="446"/>
      <point x="364" y="377"/>
      <point x="320" y="319" type="curve"/>
      <point x="264" y="379"/>
      <point x="219" y="446"/>
      <point x="186" y="518" type="curve"/>
      <point x="13" y="518" type="line"/>
      <point x="63" y="381"/>
      <point x="147" y="259"/>
      <point x="253" y="160" type="curve"/>
      <point x="41" y="160" type="line"/>
      <point x="41" y="0" type="line"/>
      <point x="545" y="0" type="line"/>
      <point x="545" y="149" type="line"/>
      <point x="537" y="153" type="line" smooth="yes"/>
      <point x="516" y="163"/>
      <point x="469" y="192"/>
    </contour>
  </outline>
</glyph>
<glyph name="qof" format="2">
  <advance width="544"/>
  <unicode hex="05E7"/>
  <outline>
    <contour>
      <point x="23" y="-165" type="line"/>
      <point x="183" y="-165" type="line"/>
      <point x="183" y="275" type="line"/>
      <point x="23" y="275" type="line"/>
    </contour>
    <contour>
      <point x="23" y="518" type="line"/>
      <point x="23" y="358" type="line"/>
      <point x="347" y="358" type="line"/>
      <point x="347" y="308" type="line" smooth="yes"/>
      <point x="347" y="221"/>
      <point x="321" y="162"/>
      <point x="226" y="162" type="curve"/>
      <point x="226" y="2" type="line"/>
      <point x="412" y="2"/>
      <point x="507" y="131"/>
      <point x="507" y="308" type="curve" smooth="yes"/>
      <point x="507" y="518" type="line"/>
    </contour>
  </outline>
</glyph>
<glyph name="resh" format="2">
  <advance width="462"/>
  <unicode hex="05E8"/>
  <outline>
    <contour>
      <point x="425" y="0" type="line"/>
      <point x="265" y="0" type="line"/>
      <point x="265" y="278" type="line" smooth="yes"/>
      <point x="265" y="322"/>
      <point x="229" y="358"/>
      <point x="185" y="358" type="curve" smooth="yes"/>
      <point x="13" y="358" type="line"/>
      <point x="13" y="518" type="line"/>
      <point x="185" y="518" type="line" smooth="yes"/>
      <point x="317" y="518"/>
      <point x="425" y="410"/>
      <point x="425" y="278" type="curve" smooth="yes"/>
    </contour>
  </outline>
</glyph>
<glyph name="shin" format="2">
  <advance width="673"/>
  <unicode hex="05E9"/>
  <outline>
    <contour>
      <point x="476" y="518" type="line"/>
      <point x="476" y="306" type="line" smooth="yes"/>
      <point x="476" y="234"/>
      <point x="432" y="160"/>
      <point x="357" y="160" type="curve" smooth="yes"/>
      <point x="227" y="160" type="line"/>
      <point x="224" y="185" type="line"/>
      <point x="238" y="185" type="line" smooth="yes"/>
      <point x="342" y="185"/>
      <point x="427" y="269"/>
      <point x="427" y="374" type="curve" smooth="yes"/>
      <point x="427" y="518" type="line"/>
      <point x="267" y="518" type="line"/>
      <point x="267" y="374" type="line" smooth="yes"/>
      <point x="267" y="358"/>
      <point x="254" y="345"/>
      <point x="238" y="345" type="curve" smooth="yes"/>
      <point x="205" y="345" type="line"/>
      <point x="184" y="518" type="line"/>
      <point x="23" y="518" type="line"/>
      <point x="85" y="0" type="line"/>
      <point x="357" y="0" type="line" smooth="yes"/>
      <point x="524" y="0"/>
      <point x="636" y="147"/>
      <point x="636" y="306" type="curve" smooth="yes"/>
      <point x="636" y="518" type="line"/>
    </contour>
  </outline>
  <guideline angle="0" x="0" y="-3980"/>
</glyph>
<glyph name="tav" format="2">
  <advance width="540"/>
  <unicode hex="05EA"/>
  <outline>
    <contour>
      <point x="263" y="518" type="curve" smooth="yes"/>
      <point x="13" y="518" type="line"/>
      <point x="13" y="358" type="line"/>
      <point x="71" y="358" type="line"/>
      <point x="71" y="160" type="line"/>
      <point x="13" y="160" type="line"/>
      <point x="13" y="0" type="line"/>
      <point x="225" y="0" type="line"/>
      <point x="225" y="358" type="line"/>
      <point x="263" y="358" type="line" smooth="yes"/>
      <point x="307" y="358"/>
      <point x="343" y="322"/>
      <point x="343" y="278" type="curve" smooth="yes"/>
      <point x="343" y="0" type="line"/>
      <point x="503" y="0" type="line"/>
      <point x="503" y="278" type="line" smooth="yes"/>
      <point x="503" y="410"/>
      <point x="395" y="518"/>
    </contour>
  </outline>
</glyph>
<glyph name="endash" format="2">
  <advance width="385"/>
  <unicode hex="2013"/>
  <outline>
    <contour>
      <point x="373" y="327" type="line"/>
      <point x="13" y="327" type="line"/>
      <point x="13" y="487" type="line"/>
      <point x="373" y="487" type="line"/>
    </contour>
  </outline>
</glyph>
<glyph name="emdash" format="2">
  <advance width="475"/>
  <unicode hex="2014"/>
  <outline>
    <contour>
      <point x="463" y="327" type="line"/>
      <point x="13" y="327" type="line"/>
      <point x="13" y="487" type="line"/>
      <point x="463" y="487" type="line"/>
    </contour>
  </outline>
</glyph>
<glyph name="quoteleft" format="2">
  <advance width="249"/>
  <unicode hex="2018"/>
  <outline>
    <contour>
      <point x="64" y="635" type="line"/>
      <point x="36" y="574"/>
      <point x="13" y="499"/>
      <point x="13" y="432" type="curve"/>
      <point x="163" y="432" type="line"/>
      <point x="163" y="485"/>
      <point x="195" y="586"/>
      <point x="237" y="635" type="curve"/>
    </contour>
  </outline>
</glyph>
<glyph name="quoteright" format="2">
  <advance width="249"/>
  <unicode hex="2019"/>
  <outline>
    <contour>
      <point x="186" y="432" type="curve"/>
      <point x="13" y="432" type="line"/>
      <point x="55" y="481"/>
      <point x="87" y="582"/>
      <point x="87" y="635" type="curve"/>
      <point x="237" y="635" type="line"/>
      <point x="237" y="568"/>
      <point x="214" y="493"/>
    </contour>
  </outline>
</glyph>
<glyph name="quotesinglbase" format="2">
  <advance width="224"/>
  <unicode hex="201A"/>
  <outline>
    <contour>
      <point x="173" y="-90" type="line"/>
      <point x="201" y="-29"/>
      <point x="224" y="46"/>
      <point x="224" y="113" type="curve"/>
      <point x="74" y="113" type="line"/>
      <point x="74" y="60"/>
      <point x="42" y="-41"/>
      <point x="0" y="-90" type="curve"/>
    </contour>
  </outline>
</glyph>
<glyph name="quotedblleft" format="2">
  <advance width="447"/>
  <unicode hex="201C"/>
  <outline>
    <contour>
      <point x="269" y="583" type="line"/>
      <point x="235" y="528"/>
      <point x="211" y="433"/>
      <point x="211" y="380" type="curve"/>
      <point x="361" y="380" type="line"/>
      <point x="361" y="433"/>
      <point x="393" y="534"/>
      <point x="435" y="583" type="curve"/>
    </contour>
    <contour>
      <point x="71" y="583" type="line"/>
      <point x="37" y="528"/>
      <point x="13" y="433"/>
      <point x="13" y="380" type="curve"/>
      <point x="163" y="380" type="line"/>
      <point x="163" y="433"/>
      <point x="195" y="534"/>
      <point x="237" y="583" type="curve"/>
    </contour>
  </outline>
</glyph>
<glyph name="quotedblright" format="2">
  <advance width="447"/>
  <unicode hex="201D"/>
  <outline>
    <contour>
      <point x="179" y="380" type="line"/>
      <point x="213" y="435"/>
      <point x="237" y="531"/>
      <point x="237" y="583" type="curve"/>
      <point x="87" y="583" type="line"/>
      <point x="87" y="530"/>
      <point x="55" y="429"/>
      <point x="13" y="380" type="curve"/>
    </contour>
    <contour>
      <point x="377" y="380" type="line"/>
      <point x="411" y="435"/>
      <point x="435" y="531"/>
      <point x="435" y="583" type="curve"/>
      <point x="285" y="583" type="line"/>
      <point x="285" y="530"/>
      <point x="253" y="429"/>
      <point x="211" y="380" type="curve"/>
    </contour>
  </outline>
</glyph>
<glyph name="quotedblbase" format="2">
  <advance width="448"/>
  <unicode hex="201E"/>
  <outline>
    <contour>
      <point x="180" y="-90" type="line"/>
      <point x="214" y="-35"/>
      <point x="238" y="61"/>
      <point x="238" y="113" type="curve"/>
      <point x="88" y="113" type="line"/>
      <point x="88" y="60"/>
      <point x="56" y="-41"/>
      <point x="13" y="-90" type="curve"/>
    </contour>
    <contour>
      <point x="378" y="-90" type="line"/>
      <point x="412" y="-35"/>
      <point x="436" y="61"/>
      <point x="436" y="113" type="curve"/>
      <point x="286" y="113" type="line"/>
      <point x="286" y="60"/>
      <point x="254" y="-41"/>
      <point x="211" y="-90" type="curve"/>
    </contour>
  </outline>
</glyph>
<glyph name="uni20AA" format="2">
  <advance width="904"/>
  <unicode hex="20AA"/>
  <outline>
    <contour>
      <point x="600" y="0" type="curve" smooth="yes"/>
      <point x="265" y="0" type="line"/>
      <point x="265" y="326" type="line"/>
      <point x="425" y="326" type="line"/>
      <point x="425" y="160" type="line"/>
      <point x="600" y="160" type="line" smooth="yes"/>
      <point x="659" y="160"/>
      <point x="707" y="208"/>
      <point x="707" y="267" type="curve"/>
      <point x="707" y="518" type="line"/>
      <point x="867" y="518" type="line"/>
      <point x="867" y="267" type="line"/>
      <point x="867" y="120"/>
      <point x="748" y="0"/>
    </contour>
    <contour>
      <point x="203" y="0" type="line"/>
      <point x="43" y="0" type="line"/>
      <point x="43" y="518" type="line"/>
      <point x="336" y="518" type="line"/>
      <point x="496" y="518"/>
      <point x="646" y="424"/>
      <point x="646" y="250" type="curve" smooth="yes"/>
      <point x="646" y="191" type="line"/>
      <point x="486" y="191" type="line"/>
      <point x="486" y="250" type="line" smooth="yes"/>
      <point x="486" y="331"/>
      <point x="404" y="358"/>
      <point x="336" y="358" type="curve"/>
      <point x="203" y="358" type="line"/>
    </contour>
  </outline>
</glyph>
<glyph name="Euro" format="2">
  <advance width="590"/>
  <unicode hex="20AC"/>
  <outline>
    <contour>
      <point x="399" y="192" type="curve"/>
      <point x="568" y="192" type="line"/>
      <point x="543" y="71"/>
      <point x="445" y="-5"/>
      <point x="325" y="-5" type="curve" smooth="yes"/>
      <point x="176" y="-5"/>
      <point x="62" y="112"/>
      <point x="62" y="258" type="curve" smooth="yes"/>
      <point x="62" y="404"/>
      <point x="177" y="523"/>
      <point x="325" y="523" type="curve" smooth="yes"/>
      <point x="439" y="523"/>
      <point x="534" y="452"/>
      <point x="564" y="340" type="curve"/>
      <point x="387" y="340" type="line"/>
      <point x="367" y="358"/>
      <point x="342" y="363"/>
      <point x="323" y="363" type="curve" smooth="yes"/>
      <point x="266" y="363"/>
      <point x="222" y="316"/>
      <point x="222" y="258" type="curve" smooth="yes"/>
      <point x="222" y="200"/>
      <point x="265" y="155"/>
      <point x="326" y="155" type="curve" smooth="yes"/>
      <point x="357" y="155"/>
      <point x="384" y="167"/>
    </contour>
    <contour>
      <point x="323" y="180" type="line"/>
      <point x="23" y="180" type="line"/>
      <point x="23" y="340" type="line"/>
      <point x="323" y="340" type="line"/>
    </contour>
  </outline>
</glyph>
<glyph name="underscore" format="2">
  <advance width="385"/>
  <outline>
    <contour>
      <point x="373" y="0" type="line"/>
      <point x="13" y="0" type="line"/>
      <point x="13" y="160" type="line"/>
      <point x="373" y="160" type="line"/>
    </contour>
  </outline>
</glyph>
